<svg id="Layer_1" data-name="Layer 1" xmlns="http://www.w3.org/2000/svg" viewBox="0 0 1080 1080"><defs><style>.cls-1{fill:#ff5b7e;}.cls-2{fill:#fff;}</style></defs><path class="cls-1" d="M43,0H1037c23.77,0,43,20,43,44.63v990.74c0,24.65-19.26,44.63-43,44.63H43c-23.77,0-43-20-43-44.63V44.63C0,20,19.26,0,43,0Z"/><path class="cls-2" d="M88.16,974.07a17.73,17.73,0,0,1,10.63,6.53,18.57,18.57,0,0,1,4.13,12q0,9.42-6.09,15t-17.66,5.46h-29V937.44h28.5q10.95,0,16.73,5.14t5.89,13.93q0,7.17-3.61,11.67A17.55,17.55,0,0,1,88.16,974.07ZM61.93,970H76.49q6.2,0,9.39-3t3.31-8.35a10.56,10.56,0,0,0-3.31-8.25q-3.19-3-9.81-3H61.93Zm14.87,33q6.7,0,10.32-3.11a12.48,12.48,0,0,0,0-17.78q-3.72-3.21-10.43-3.21H61.93V1003Zm46.48-3.43v13.5H110v-13.5Zm42.9-62.87q13.42,0,22.31,7.07t12,19.17H188A22.52,22.52,0,0,0,166,948a21.13,21.13,0,0,0-11.67,3.32,23.08,23.08,0,0,0-8.06,9.54,33.17,33.17,0,0,0-2.89,14.35,33.61,33.61,0,0,0,2.89,14.35,23.19,23.19,0,0,0,8.06,9.43,21.13,21.13,0,0,0,11.67,3.32,22.28,22.28,0,0,0,22-14.78h12.5q-3.1,12.1-12,19.17t-22.31,7a34.63,34.63,0,0,1-18.28-4.82,33,33,0,0,1-12.28-13.6,44.55,44.55,0,0,1-4.34-20,43.84,43.84,0,0,1,4.34-19.92,32.77,32.77,0,0,1,12.28-13.71A34,34,0,0,1,166.18,936.69Zm72.06,16.6a30.41,30.41,0,0,1,14.87,3.64,25.65,25.65,0,0,1,10.32,10.5,36.79,36.79,0,0,1,0,32.24,25.65,25.65,0,0,1-10.32,10.5,32.19,32.19,0,0,1-29.74,0A26.56,26.56,0,0,1,213,999.67a33.79,33.79,0,0,1-3.72-16.17A33.2,33.2,0,0,1,213,967.43a26.56,26.56,0,0,1,10.33-10.5A30.35,30.35,0,0,1,238.24,953.29Zm0,10.61a16.82,16.82,0,0,0-8.37,2.14,15.74,15.74,0,0,0-6.19,6.64,23.28,23.28,0,0,0-2.28,10.82,23.54,23.54,0,0,0,2.28,10.92,15.79,15.79,0,0,0,6.19,6.53,17.35,17.35,0,0,0,16.73,0,15.16,15.16,0,0,0,6.09-6.53,22.67,22.67,0,0,0,2.38-10.92,22.42,22.42,0,0,0-2.38-10.82A15.13,15.13,0,0,0,246.6,966,16.78,16.78,0,0,0,238.24,963.9Zm111.38-10.82q10.13,0,16.11,6.64t6.1,19v34.38H360.05V980q0-7.71-3.71-11.89t-10.23-4.28a14.12,14.12,0,0,0-11.05,4.6q-4,4.5-4,13.29v31.38H319.26V980q0-7.71-3.72-11.89t-10.22-4.28a14.12,14.12,0,0,0-11.05,4.6q-4,4.5-4,13.29v31.38H278.47V954h11.77v12.32a18.68,18.68,0,0,1,7.23-9.85,22.43,22.43,0,0,1,24.17.21,20.44,20.44,0,0,1,7.64,10.5,21.17,21.17,0,0,1,8-10.39A21.41,21.41,0,0,1,349.62,953.08Z"/><path class="cls-2" d="M594.09,230.74c13.54,36.32,67.68,18.16,54.15-13.61l-13.54-59L900.93,394.16c4.51,4.54,13.53,9.08,22.56,9.08L1080,367.07V308.13l-152,36.1-270.74-236,72.2,4.54c36.1,0,40.61-54.47,4.51-59L580.55,44.63c-18,0-31.58,9.08-31.58,27.23,0,7.73,13.06,50.51,25.2,90.24C583.43,192.4,592.14,220.92,594.09,230.74Z"/><path class="cls-2" d="M1019.29,521.27H845.73c-11.88,0-21.51,10-21.51,22.31V1078.1h216.59V543.58C1040.81,531.26,1031.18,521.27,1019.29,521.27Z"/><path class="cls-2" d="M706.9,1078.1V321.15c0-12.32-9.63-22.31-21.52-22.31h-169c-11.88,0-21.51,10-21.51,22.31V1078.1Z"/></svg>