<svg id="Layer_1" data-name="Layer 1" xmlns="http://www.w3.org/2000/svg" viewBox="0 0 1080 1080"><defs><style>.cls-1{fill:#feb546;}.cls-2{fill:#fff;}</style></defs><path class="cls-1" d="M43,0h993.28c23.75,0,43,20,43,44.59v989.9c0,24.62-19.25,44.59-43,44.59H43c-23.75,0-43-20-43-44.59V44.59C0,20,19.25,0,43,0Z"/><path class="cls-2" d="M88.1,973.24a17.71,17.71,0,0,1,10.63,6.53,18.56,18.56,0,0,1,4.12,12q0,9.42-6.08,15t-17.65,5.46h-29V936.64H78.6q11,0,16.72,5.13t5.88,13.92q0,7.17-3.61,11.66A17.52,17.52,0,0,1,88.1,973.24Zm-26.22-4.07H76.44q6.18,0,9.39-3c2.2-2,3.3-4.78,3.3-8.34a10.55,10.55,0,0,0-3.3-8.24c-2.14-2-5.4-3-9.81-3H61.88Zm14.87,33q6.7,0,10.32-3.1a12.49,12.49,0,0,0,0-17.77q-3.72-3.21-10.43-3.21H61.88v24.08Zm75.14-28.89a17.69,17.69,0,0,1,10.63,6.53,18.57,18.57,0,0,1,4.13,12q0,9.42-6.09,15t-17.65,5.46h-29V936.64H142.4q10.93,0,16.71,5.13T165,955.69q0,7.17-3.62,11.66A17.49,17.49,0,0,1,151.89,973.24Zm-26.21-4.07h14.55q6.2,0,9.39-3c2.2-2,3.3-4.78,3.3-8.34a10.55,10.55,0,0,0-3.3-8.24q-3.19-3-9.8-3H125.68Zm14.86,33q6.71,0,10.32-3.1a12.49,12.49,0,0,0,0-17.77q-3.72-3.21-10.42-3.21H125.68v24.08Zm80.61-6.31H190.4l-5.57,16.37H172.24l26.83-74.37h13.52l26.73,74.37H226.73Zm-3.3-9.42-12.07-35.31L193.7,986.4Z"/><ellipse class="cls-2" cx="834.19" cy="208.84" rx="163.56" ry="164.25"/><path class="cls-2" d="M1080,1032.75v-478c-106.52-172-516.71-141.85-516.71,90.41V1080h471.15C1059.6,1080,1080,1058.85,1080,1032.75Zm-261.15-557h30.67c20.45,0,25.56,41.07,5.11,51.33l20.45,282.31-40.89,51.33L793.3,809.39l25.55-282.31C793.3,522,798.41,475.75,818.85,475.75Z"/></svg>