<svg id="Layer_1" data-name="Layer 1" xmlns="http://www.w3.org/2000/svg" viewBox="0 0 1080 1080"><defs><style>.cls-1{fill:#02ccc0;}.cls-2,.cls-3{fill:#fff;}.cls-3{fill-rule:evenodd;}</style></defs><path class="cls-1" d="M43,0H1037c23.77,0,43,20,43,44.63v990.74c0,24.65-19.26,44.63-43,44.63H43c-23.77,0-43-20-43-44.63V44.63C0,20,19.26,0,43,0Z"/><path class="cls-2" d="M88.16,974.07a17.73,17.73,0,0,1,10.63,6.53,18.57,18.57,0,0,1,4.13,12q0,9.42-6.09,15t-17.66,5.46h-29V937.44H78.66q10.94,0,16.72,5.14t5.89,13.93q0,7.17-3.61,11.67A17.55,17.55,0,0,1,88.16,974.07ZM61.93,970H76.49q6.2,0,9.39-3t3.31-8.35a10.56,10.56,0,0,0-3.31-8.25q-3.19-3-9.81-3H61.93Zm14.87,33q6.7,0,10.32-3.11a12.48,12.48,0,0,0,0-17.78q-3.72-3.21-10.43-3.21H61.93V1003Zm75.4-65.55v54.84q0,10.17-5.48,15.85t-15.18,5.68q-10.53,0-16.52-6.32t-6-17.89H120.7q0,6.21,2.48,9.64t7.85,3.43c3.23,0,5.61-1,7.12-2.89a11.76,11.76,0,0,0,2.28-7.5V937.44Zm89.32,1.18v74.44H229.64V957.25l-20.76,55.81H198.56L177.7,957.25v55.81H165.92V938.62h14.26l23.75,59.44,23.33-59.44Zm46.69-1.93q13.43,0,22.31,7.07t12,19.17H310A22.52,22.52,0,0,0,288,948a21.18,21.18,0,0,0-11.67,3.32,23.13,23.13,0,0,0-8.05,9.54,33.17,33.17,0,0,0-2.89,14.35,33.61,33.61,0,0,0,2.89,14.35,23.24,23.24,0,0,0,8.05,9.43,21.18,21.18,0,0,0,11.67,3.32,22.28,22.28,0,0,0,22-14.78h12.49q-3.09,12.1-12,19.17t-22.31,7a34.6,34.6,0,0,1-18.28-4.82,33,33,0,0,1-12.29-13.6,44.68,44.68,0,0,1-4.33-20,44,44,0,0,1,4.33-19.92,32.79,32.79,0,0,1,12.29-13.71A34,34,0,0,1,288.21,936.69Z"/><path class="cls-3" d="M413.05,372.07,297.12,305.38c-20.8-11.94-46.57,3-47.56,26.88V626.85a31,31,0,0,0,46.57,26.87L412.07,587v73.65a93.23,93.23,0,0,0,93.13,93.55H1080V682.59H505.2a23.1,23.1,0,0,1-22.78-22.9V298.42c0-11.95,9.91-22.89,22.78-22.89H1080V205.86H688.52l25.76-41.8c8.92-13.94,22.79-21.9,38.64-21.9h247.72a48.77,48.77,0,0,0,0-97.53H752.92c-49.54,0-95.12,24.88-120.88,67.68l-56.49,93.55H506.2a93.24,93.24,0,0,0-93.15,93.55Z"/><path class="cls-2" d="M773.73,447.7h237.81a28.83,28.83,0,0,1,28.74,28.87v95.54A28.83,28.83,0,0,1,1011.54,601H773.73A28.82,28.82,0,0,1,745,572.11V476.57A28.82,28.82,0,0,1,773.73,447.7Z"/></svg>