<svg id="Layer_1" data-name="Layer 1" xmlns="http://www.w3.org/2000/svg" xmlns:xlink="http://www.w3.org/1999/xlink" viewBox="0 0 1080 1080"><defs><style>.cls-1{fill:none;}.cls-2{fill:#b2df57;}.cls-3,.cls-5{fill:#fff;}.cls-4{clip-path:url(#clip-path);}.cls-5{fill-rule:evenodd;}</style><clipPath id="clip-path"><rect class="cls-1" x="460.4" y="53.55" width="619.6" height="740.83"/></clipPath></defs><path class="cls-2" d="M43,0H1037c23.77,0,43,20,43,44.63v990.74c0,24.65-19.26,44.63-43,44.63H43c-23.77,0-43-20-43-44.63V44.63C0,20,19.26,0,43,0Z"/><path class="cls-3" d="M61.93,804.48V827.4H88.78v9.43H61.93v23.46H91.87v10H50.15V794.63H91.87v9.85Zm66.67,6q11.06,0,18.28,6.11t9,16.38H143.37a13.66,13.66,0,0,0-5.06-8.67,15.16,15.16,0,0,0-9.92-3.21,14.66,14.66,0,0,0-11.36,5q-4.55,4.92-4.54,14.57T117,855.36a14.66,14.66,0,0,0,11.36,5,15.16,15.16,0,0,0,9.92-3.21,14.11,14.11,0,0,0,5.06-8.78h12.49q-1.76,10.38-9,16.49T128.6,871a29.17,29.17,0,0,1-14.66-3.64,25.61,25.61,0,0,1-9.92-10.5,37.8,37.8,0,0,1,0-32.24,25.61,25.61,0,0,1,9.92-10.5A29.17,29.17,0,0,1,128.6,810.48Zm64.66,0a30.38,30.38,0,0,1,14.87,3.64,25.68,25.68,0,0,1,10.33,10.5,36.88,36.88,0,0,1,0,32.24,25.68,25.68,0,0,1-10.33,10.5,32.19,32.19,0,0,1-29.74,0,26.56,26.56,0,0,1-10.33-10.5,33.79,33.79,0,0,1-3.72-16.17,33.2,33.2,0,0,1,3.72-16.07,26.56,26.56,0,0,1,10.33-10.5A30.35,30.35,0,0,1,193.26,810.48Zm0,10.61a16.82,16.82,0,0,0-8.37,2.14,15.8,15.8,0,0,0-6.19,6.64,23.28,23.28,0,0,0-2.27,10.82,23.55,23.55,0,0,0,2.27,10.92,15.85,15.85,0,0,0,6.19,6.53,17.35,17.35,0,0,0,16.73,0,15.24,15.24,0,0,0,6.1-6.53,22.79,22.79,0,0,0,2.37-10.92,22.54,22.54,0,0,0-2.37-10.82,15.21,15.21,0,0,0-6.1-6.64A16.75,16.75,0,0,0,193.26,821.09Zm72-10.82q9.92,0,15.9,6.64t6,19v34.38H275.42v-33.1q0-7.92-3.93-12.21t-10.73-4.39a14.39,14.39,0,0,0-11.26,4.71q-4.23,4.61-4.24,13.61v31.38H233.49v-59h11.77v13a19.75,19.75,0,0,1,7.65-10.28A21.53,21.53,0,0,1,265.3,810.27Zm61.68.21a30.35,30.35,0,0,1,14.87,3.64,25.68,25.68,0,0,1,10.33,10.5,36.79,36.79,0,0,1,0,32.24,25.68,25.68,0,0,1-10.33,10.5,32.19,32.19,0,0,1-29.74,0,26.47,26.47,0,0,1-10.32-10.5,33.79,33.79,0,0,1-3.72-16.17,33.2,33.2,0,0,1,3.72-16.07,26.47,26.47,0,0,1,10.32-10.5A30.38,30.38,0,0,1,327,810.48Zm0,10.61a16.75,16.75,0,0,0-8.36,2.14,15.82,15.82,0,0,0-6.2,6.64,23.41,23.41,0,0,0-2.27,10.82,23.67,23.67,0,0,0,2.27,10.92,15.88,15.88,0,0,0,6.2,6.53,17.35,17.35,0,0,0,16.73,0,15.22,15.22,0,0,0,6.09-6.53,22.79,22.79,0,0,0,2.37-10.92,22.54,22.54,0,0,0-2.37-10.82,15.19,15.19,0,0,0-6.09-6.64A16.82,16.82,0,0,0,327,821.09Zm111.39-10.82q10.11,0,16.11,6.64t6.09,19v34.38H448.8v-33.1q0-7.71-3.72-11.89T434.86,821a14.09,14.09,0,0,0-11.05,4.6q-4,4.5-4,13.29v31.38H408v-33.1q0-7.71-3.72-11.89T394.06,821a14.12,14.12,0,0,0-11.05,4.6q-4,4.5-4,13.29v31.38H367.22v-59H379v12.32a18.58,18.58,0,0,1,7.23-9.85A20.88,20.88,0,0,1,418,824.41a21.21,21.21,0,0,1,20.35-14.14Zm34.29-16.18a6.91,6.91,0,0,1,2.07-5.14,8.38,8.38,0,0,1,10.94,0,6.74,6.74,0,0,1,2.17,5.14,6.41,6.41,0,0,1-2.17,5,8.72,8.72,0,0,1-10.94,0A6.57,6.57,0,0,1,472.66,794.09Zm13.43,17.14v59H474.31v-59Zm39.54-.75q11.05,0,18.28,6.11t9,16.38H540.4a13.62,13.62,0,0,0-5.06-8.67,15.15,15.15,0,0,0-9.91-3.21,14.64,14.64,0,0,0-11.36,5q-4.55,4.92-4.55,14.57t4.55,14.67a14.64,14.64,0,0,0,11.36,5,15.15,15.15,0,0,0,9.91-3.21,14.06,14.06,0,0,0,5.06-8.78h12.5q-1.75,10.38-9,16.49T525.63,871A29.22,29.22,0,0,1,511,867.36a25.59,25.59,0,0,1-9.91-10.5,37.7,37.7,0,0,1,0-32.24,25.59,25.59,0,0,1,9.91-10.5A29.22,29.22,0,0,1,525.63,810.48Zm57.33,0q10,0,16,5.36A22.32,22.32,0,0,1,606.4,830H595.25a12.3,12.3,0,0,0-4-7.72,12,12,0,0,0-8.57-3,9.92,9.92,0,0,0-6.92,2.25,7.55,7.55,0,0,0-2.37,5.89,6,6,0,0,0,1.75,4.5,12.12,12.12,0,0,0,4.34,2.68,77,77,0,0,0,7.54,2.14,70.57,70.57,0,0,1,10.32,3.11,16.18,16.18,0,0,1,6.82,5.14q2.89,3.43,2.89,9.43a14.93,14.93,0,0,1-5.47,12Q596.18,871,587,871q-10.63,0-17.25-5.14t-7.85-14.36h11.47a11.31,11.31,0,0,0,4.13,7.82,14.38,14.38,0,0,0,9.5,3,9.24,9.24,0,0,0,6.61-2.25,7.78,7.78,0,0,0,2.47-5.89,6.63,6.63,0,0,0-1.85-4.93,12.26,12.26,0,0,0-4.65-2.78,56,56,0,0,0-7.64-2.14,85.13,85.13,0,0,1-10.12-3,16.37,16.37,0,0,1-6.61-4.82q-2.69-3.43-2.69-9.21a15.2,15.2,0,0,1,5.37-12.11Q573.36,810.48,583,810.48ZM108.09,946.37V1022H96.21V988H61.93v34H50.15V946.37H61.93v31.7H96.21v-31.7Zm40.29,15.85a30.24,30.24,0,0,1,14.87,3.64,25.68,25.68,0,0,1,10.33,10.5,36.79,36.79,0,0,1,0,32.24,25.71,25.71,0,0,1-10.33,10.49,32.19,32.19,0,0,1-29.74,0,26.57,26.57,0,0,1-10.32-10.49,33.86,33.86,0,0,1-3.72-16.18,33.16,33.16,0,0,1,3.72-16.06,26.54,26.54,0,0,1,10.32-10.5A30.3,30.3,0,0,1,148.38,962.22Zm0,10.6A16.89,16.89,0,0,0,140,975a15.88,15.88,0,0,0-6.2,6.64,23.44,23.44,0,0,0-2.27,10.82,23.69,23.69,0,0,0,2.27,10.93,16,16,0,0,0,6.2,6.53,17.42,17.42,0,0,0,16.73,0,15.34,15.34,0,0,0,6.09-6.53,22.81,22.81,0,0,0,2.38-10.93,22.57,22.57,0,0,0-2.38-10.82,15.24,15.24,0,0,0-6.09-6.64A16.92,16.92,0,0,0,148.38,972.82Zm72-10.82q9.92,0,15.91,6.64t6,19V1022H230.54V988.89q0-7.93-3.92-12.21t-10.74-4.39A14.4,14.4,0,0,0,204.62,977q-4.23,4.61-4.23,13.6V1022H188.62V963h11.77v13A19.71,19.71,0,0,1,208,965.64,21.6,21.6,0,0,1,220.42,962Zm54.35.22q10,0,16,5.35a22.38,22.38,0,0,1,7.44,14.14H287.06a12.26,12.26,0,0,0-4-7.71,12,12,0,0,0-8.57-3,9.94,9.94,0,0,0-6.92,2.25,7.54,7.54,0,0,0-2.37,5.89,6,6,0,0,0,1.76,4.5,12.36,12.36,0,0,0,4.33,2.68c1.79.64,4.31,1.35,7.54,2.14a69.53,69.53,0,0,1,10.33,3.11,16.21,16.21,0,0,1,6.81,5.14q2.9,3.42,2.89,9.42a14.93,14.93,0,0,1-5.47,12q-5.37,4.61-14.56,4.6-10.64,0-17.24-5.14t-7.85-14.35h11.46a11.33,11.33,0,0,0,4.13,7.82,14.4,14.4,0,0,0,9.5,3,9.23,9.23,0,0,0,6.61-2.25,7.81,7.81,0,0,0,2.48-5.89A6.58,6.58,0,0,0,286,1001a12.26,12.26,0,0,0-4.65-2.78,55.36,55.36,0,0,0-7.64-2.15,85.7,85.7,0,0,1-10.12-3,16.28,16.28,0,0,1-6.61-4.82q-2.69-3.42-2.68-9.21a15.16,15.16,0,0,1,5.37-12.1Q265.18,962.22,274.77,962.22Zm45.16,46.27V1022H306.61v-13.49Z"/><g class="cls-4"><path class="cls-5" d="M1080,482.09a178.76,178.76,0,0,0-151-13.38l-26.62,9.75h-164c-28.54,0-51.64,24-51.64,53.7v1.67c1.85,29.35,25.5,52.11,53.81,51.61H839c11.06,0,20,9.34,20,20.85s-9,20.84-20,20.84H740.57c-50,.25-91.34-40.44-93.9-92.38v-1.34L555.57,427c-19.24-23.18-52.52-26.52-75.7-7.67-22.85,19.59-26.06,54.78-7.14,78.54a5.47,5.47,0,0,1,.44.54,6.13,6.13,0,0,0,.45.54l181.87,216.8c24.21,28.93,59.34,45.44,96.22,45.44h273.37l47.47,49.36L1080,803Z"/><path class="cls-3" d="M877.71,106.09a11.24,11.24,0,0,1-10.34,7H818.45c.65,1.25,1.53,3,2.65,5.34s2.25,4.91,3.37,7.67,2.32,5.66,3.37,8.75,1.92,5.84,2.64,8.5h52c8.18,0,13.64,8.68,10.35,16.43l-15.23,36.11a11.26,11.26,0,0,1-10.35,7H840.43a11.26,11.26,0,0,0-10.83,8.42,110.9,110.9,0,0,1-11.39,27.93,120.91,120.91,0,0,1-54.85,49.95,116.46,116.46,0,0,1-17,6.25c-8.18,2.26-11.22,12.68-5.53,19.18L842.27,430.44c6.58,7.5,1.44,19.67-8.34,19.67H772.35a11.1,11.1,0,0,1-8.51-4l-117.63-139a11.93,11.93,0,0,1-2.81-7.76V256a11.52,11.52,0,0,1,11.31-11.75h29.18a143.59,143.59,0,0,0,21.34-1.84,109.42,109.42,0,0,0,23.89-6.5,68.57,68.57,0,0,0,20.37-12.68l.16-.16c7.54-6.92,2.09-20.1-7.94-20.1H648.13c-8.18,0-13.63-8.67-10.34-16.42L653,150.44a11.26,11.26,0,0,1,10.35-7h92.86a61.18,61.18,0,0,0-10-14.59,43.72,43.72,0,0,0-12.83-9.26,61.11,61.11,0,0,0-16.6-5,146,146,0,0,0-21.33-1.42H648.13c-8.18,0-13.63-8.67-10.34-16.43L653,60.64a11.22,11.22,0,0,1,10.35-7.09H882.61c8.17,0,13.63,8.67,10.34,16.43Z"/></g></svg>