<svg id="Layer_1" data-name="Layer 1" xmlns="http://www.w3.org/2000/svg" viewBox="0 0 1080 1080"><defs><style>.cls-1{fill:#284c7a;}.cls-2,.cls-3{fill:#fff;}.cls-3{fill-rule:evenodd;}</style></defs><path class="cls-1" d="M43,0H1037c23.77,0,43,20,43,44.63v990.74c0,24.65-19.26,44.63-43,44.63H43c-23.77,0-43-20-43-44.63V44.63C0,20,19.26,0,43,0Z"/><path class="cls-2" d="M61.93,804.48V827.4H88.78v9.43H61.93v23.46H91.87v10H50.15V794.63H91.87v9.85Zm73.18,5.79q9.91,0,15.9,6.64t6,19v34.38H145.23v-33.1q0-7.92-3.93-12.21t-10.74-4.39a14.38,14.38,0,0,0-11.25,4.71q-4.23,4.61-4.24,13.61v31.38H103.3v-59h11.77v13a19.75,19.75,0,0,1,7.65-10.28A21.53,21.53,0,0,1,135.11,810.27Zm58.48.21a21.91,21.91,0,0,1,13.21,4,21.3,21.3,0,0,1,7.75,10.5V811.23h11.77v59.66a31,31,0,0,1-3.3,14.57,23.93,23.93,0,0,1-9.3,10.07,27.72,27.72,0,0,1-14.45,3.64q-12,0-19.42-5.89a25.69,25.69,0,0,1-9.19-16h11.67a14.12,14.12,0,0,0,5.58,8.14,17.45,17.45,0,0,0,10.53,3A15.76,15.76,0,0,0,210,884q4.55-4.5,4.54-13.07V856.54A21.23,21.23,0,0,1,206.8,867a21.84,21.84,0,0,1-13.21,4,23.8,23.8,0,0,1-22.41-14.14,40.91,40.91,0,0,1,0-32.24,23.8,23.8,0,0,1,22.41-14.14Zm3.61,10.71q-7.84,0-12.6,5.25T180,840.69q0,9.1,4.64,14.35t12.6,5.14a16.89,16.89,0,0,0,8.88-2.36,17.23,17.23,0,0,0,6.2-6.85,22.16,22.16,0,0,0,2.27-10.28,21.91,21.91,0,0,0-2.27-10.18,16.58,16.58,0,0,0-15.08-9.32Zm55-30.2v79.26H240.45V791Zm12.59,3.1a6.9,6.9,0,0,1,2.06-5.14,8.4,8.4,0,0,1,10.95,0,6.77,6.77,0,0,1,2.17,5.14,6.44,6.44,0,0,1-2.17,5,8.73,8.73,0,0,1-10.95,0A6.56,6.56,0,0,1,264.82,794.09Zm13.42,17.14v59H266.47v-59Zm32.94-.75q10,0,16,5.36A22.33,22.33,0,0,1,334.62,830H323.47a12.35,12.35,0,0,0-4-7.72,12,12,0,0,0-8.57-3,9.92,9.92,0,0,0-6.92,2.25,7.56,7.56,0,0,0-2.38,5.89,6,6,0,0,0,1.76,4.5,12.12,12.12,0,0,0,4.34,2.68,77,77,0,0,0,7.54,2.14,70.57,70.57,0,0,1,10.32,3.11,16.18,16.18,0,0,1,6.82,5.14q2.89,3.43,2.89,9.43a15,15,0,0,1-5.47,12Q324.4,871,315.21,871q-10.65,0-17.25-5.14t-7.85-14.36h11.46a11.39,11.39,0,0,0,4.13,7.82,14.41,14.41,0,0,0,9.51,3,9.2,9.2,0,0,0,6.6-2.25,7.76,7.76,0,0,0,2.48-5.89,6.6,6.6,0,0,0-1.86-4.93,12.21,12.21,0,0,0-4.64-2.78,55.76,55.76,0,0,0-7.65-2.14,85.7,85.7,0,0,1-10.12-3,16.34,16.34,0,0,1-6.6-4.82q-2.69-3.43-2.69-9.21a15.2,15.2,0,0,1,5.37-12.11Q301.58,810.48,311.18,810.48Zm67.67-.21q9.91,0,15.91,6.64t6,19v34.38H389v-33.1q0-7.92-3.92-12.21t-10.74-4.39a14.4,14.4,0,0,0-11.26,4.71q-4.23,4.61-4.23,13.61v31.38H347.05V791h11.77v33.2a19.68,19.68,0,0,1,7.64-10.28A21.53,21.53,0,0,1,378.85,810.27ZM108.09,946.37V1022H96.21V988H61.93v34H50.15V946.37H61.93v31.7H96.21v-31.7Zm40.29,15.85a30.24,30.24,0,0,1,14.87,3.64,25.68,25.68,0,0,1,10.33,10.5,36.79,36.79,0,0,1,0,32.24,25.71,25.71,0,0,1-10.33,10.49,32.19,32.19,0,0,1-29.74,0,26.6,26.6,0,0,1-10.33-10.49,34,34,0,0,1-3.71-16.18,33.27,33.27,0,0,1,3.71-16.06,26.56,26.56,0,0,1,10.33-10.5A30.27,30.27,0,0,1,148.38,962.22Zm0,10.6A16.86,16.86,0,0,0,140,975a15.82,15.82,0,0,0-6.2,6.64,23.44,23.44,0,0,0-2.27,10.82,23.69,23.69,0,0,0,2.27,10.93,15.93,15.93,0,0,0,6.2,6.53,17.42,17.42,0,0,0,16.73,0,15.4,15.4,0,0,0,6.09-6.53,22.81,22.81,0,0,0,2.37-10.93,22.57,22.57,0,0,0-2.37-10.82,15.3,15.3,0,0,0-6.09-6.64A16.92,16.92,0,0,0,148.38,972.82Zm72-10.82q9.92,0,15.91,6.64t6,19V1022H230.54V988.89q0-7.93-3.92-12.21t-10.74-4.39A14.42,14.42,0,0,0,204.62,977q-4.23,4.61-4.23,13.6V1022H188.62V963h11.77v13A19.71,19.71,0,0,1,208,965.64,21.6,21.6,0,0,1,220.42,962Zm54.35.22q10,0,16,5.35a22.32,22.32,0,0,1,7.43,14.14H287.06a12.26,12.26,0,0,0-4-7.71,12,12,0,0,0-8.57-3,9.94,9.94,0,0,0-6.92,2.25,7.54,7.54,0,0,0-2.37,5.89,6,6,0,0,0,1.75,4.5,12.41,12.41,0,0,0,4.34,2.68q2.69,1,7.54,2.14a69.53,69.53,0,0,1,10.33,3.11,16.21,16.21,0,0,1,6.81,5.14q2.9,3.42,2.89,9.42a14.93,14.93,0,0,1-5.47,12q-5.37,4.61-14.56,4.6-10.64,0-17.25-5.14t-7.84-14.35h11.46a11.33,11.33,0,0,0,4.13,7.82,14.4,14.4,0,0,0,9.5,3,9.24,9.24,0,0,0,6.61-2.25,7.81,7.81,0,0,0,2.48-5.89A6.58,6.58,0,0,0,286,1001a12.26,12.26,0,0,0-4.65-2.78,55.77,55.77,0,0,0-7.64-2.15,85.7,85.7,0,0,1-10.12-3,16.28,16.28,0,0,1-6.61-4.82q-2.69-3.42-2.69-9.21a15.16,15.16,0,0,1,5.37-12.1Q265.16,962.22,274.77,962.22Zm45.16,46.27V1022H306.61v-13.49Z"/><path class="cls-3" d="M1080,409.25,945.64,67.44a21.53,21.53,0,0,0-19.93-13.89H826.25a21.54,21.54,0,0,0-20.08,14.31L544.78,773c-5.41,14.61,5,30.32,20.09,30.32h96.58a21.58,21.58,0,0,0,20.22-14.67l65.07-185.11A21.57,21.57,0,0,1,767,588.86H990.41a21.55,21.55,0,0,1,20.1,14.34L1079,789a22.43,22.43,0,0,0,1,2.25ZM952,439.59c5.41,14.62-5,30.31-20.09,30.31H823c-14.92,0-25.31-15.37-20.23-29.92l52.91-151.36a21.25,21.25,0,0,1,40.31-.39Z"/></svg>