<svg id="Layer_1" data-name="Layer 1" xmlns="http://www.w3.org/2000/svg" xmlns:xlink="http://www.w3.org/1999/xlink" viewBox="0 0 1440 465"><defs><style>.cls-1{fill:none;}.cls-2{clip-path:url(#clip-path);}.cls-3{fill:#f4a640;}.cls-4{fill:#adcfd8;}.cls-13,.cls-5{fill:#55769f;}.cls-6{fill:#daeef7;}.cls-7{fill:#feb546;}.cls-8{fill:#ff5b7e;}.cls-9{fill:#e03268;}.cls-10{fill:#02ccc0;}.cls-11{fill:#06bfad;}.cls-12{fill:#284c7a;}.cls-13{opacity:0.5;}.cls-13,.cls-20,.cls-29{isolation:isolate;}.cls-14{fill:#c4dfe8;}.cls-15{fill:#ffc0bb;}.cls-16{fill:#f50;}.cls-17{fill:#07085b;}.cls-18,.cls-29{fill:#f99893;}.cls-19{fill:#333;}.cls-20{fill:#fc8d84;opacity:0.6;}.cls-21{fill:#050645;}.cls-22{fill:#fff;}.cls-23{fill:#070852;}.cls-24{fill:#10116b;}.cls-25{fill:#ededed;}.cls-26{fill:#26426e;}.cls-27{fill:#e0e0e0;}.cls-28{fill:#3a5782;}.cls-29{opacity:0.3;}.cls-30{fill:#f5577a;}.cls-31{fill:#de4b6c;}</style><clipPath id="clip-path"><rect class="cls-1" width="1440" height="465"/></clipPath></defs><g class="cls-2"><path class="cls-3" d="M366,352.15l-73.67,29.59-91.19-227.1,62.27-25a12.27,12.27,0,0,1,16,6.82Z"/><path class="cls-4" d="M339.53,145.32l-141,25,35.17,198.35,141-25Z"/><path class="cls-5" d="M303.9,172l-63,11.17.25,1.41,63-11.17Z"/><path class="cls-5" d="M316.5,166l-89.45,15.87.25,1.41,89.45-15.86Z"/><path class="cls-5" d="M329.3,182.76,220.78,202l.25,1.41,108.52-19.24Z"/><path class="cls-5" d="M330.51,189.56,222,208.81l.25,1.42L330.76,191Z"/><path class="cls-5" d="M332.92,203.17,224.4,222.42l.25,1.41,108.52-19.25Z"/><path class="cls-5" d="M334.13,210,225.61,229.22l.25,1.41,108.52-19.25Z"/><path class="cls-5" d="M335.33,216.77,226.81,236l.25,1.41,108.52-19.24Z"/><path class="cls-5" d="M340.64,246.69,232.12,265.94l.25,1.41L340.89,248.1Z"/><path class="cls-5" d="M341.89,253.74,233.37,273l.25,1.42,108.52-19.25Z"/><path class="cls-5" d="M343.14,260.8,234.62,280.05l.25,1.41,108.52-19.25Z"/><path class="cls-5" d="M344.39,267.85,235.87,287.1l.25,1.42,108.52-19.25Z"/><path class="cls-5" d="M345.64,274.91,237.12,294.15l.25,1.42,108.52-19.25Z"/><path class="cls-5" d="M346.89,282,238.37,301.21l.25,1.41,108.52-19.24Z"/><path class="cls-5" d="M348.14,289,239.62,308.26l.25,1.41,108.52-19.24Z"/><path class="cls-6" d="M319.22,140.4,180.68,176.86l51.25,194.82,138.55-36.46Z"/><path class="cls-5" d="M285.88,169.85,224,186.13l.37,1.39,61.86-16.28Z"/><path class="cls-5" d="M298,162.9,210.09,186l.37,1.39,87.86-23.13Z"/><path class="cls-5" d="M312.08,178.55l-106.59,28,.36,1.39,106.6-28.05Z"/><path class="cls-5" d="M313.84,185.23,207.25,213.29l.36,1.38,106.59-28Z"/><path class="cls-5" d="M317.36,198.59l-106.6,28.06.37,1.39L317.72,200Z"/><path class="cls-5" d="M319.11,205.27,212.52,233.33l.37,1.39,106.59-28.06Z"/><path class="cls-5" d="M320.87,212,214.28,240l.36,1.39,106.6-28.05Z"/><path class="cls-5" d="M328.6,241.34,222,269.4l.36,1.39L329,242.73Z"/><path class="cls-5" d="M330.43,248.27l-106.6,28,.37,1.39,106.59-28Z"/><path class="cls-5" d="M332.25,255.2,225.66,283.26l.36,1.38,106.59-28.05Z"/><path class="cls-5" d="M334.07,262.13,227.48,290.18l.37,1.39,106.59-28.05Z"/><path class="cls-5" d="M335.89,269.05,229.3,297.11l.37,1.39,106.59-28.06Z"/><path class="cls-5" d="M337.72,276,231.13,304l.36,1.39,106.59-28.06Z"/><path class="cls-5" d="M339.54,282.91,233,311l.36,1.39,106.6-28.06Z"/><path class="cls-7" d="M338.07,363.38,189.76,423l-86.5-215.43,124.63-76.89A13.27,13.27,0,0,1,247.17,137Z"/><path class="cls-8" d="M141.9,388.09l-21.15-.38C113.4,374.4,108,362.82,108,362.82c23.9-5.51,44.06-3.25,60.87,3.21l9.26,22.49,2-17.32c41.64,22.48,58.79,70.06,58.79,70.06s-73.59-7.84-89.18-15.1c-6-2.8-13.62-12.89-20.67-24.21C134.7,396.58,141.9,388.09,141.9,388.09Z"/><path class="cls-9" d="M108,362.82s94.48,39.76,130.9,78.43c0,0-73.59-7.84-89.19-15.09-6-2.81-13.61-12.89-20.66-24.21,5.64-5.37,12.84-13.86,12.84-13.86l-21.15-.38C113.4,374.39,108,362.82,108,362.82Z"/><path class="cls-8" d="M111,426.37a97,97,0,0,1,38-13.54c3.64,4.52,8.11,9.85,8.11,9.85l.47-10.62c47.66-2.17,87.15,29.77,87.15,29.77-27.6,17.4-51.15,22.2-70.44,20.64-1.14-3.71-2.75-9.25-2.75-9.25l-3.41,8.52a82.91,82.91,0,0,1-24.45-7.85c1.8-4.42,3.71-9.48,3.71-9.48l-10.28,5.84A90.05,90.05,0,0,1,111,426.37Z"/><path class="cls-9" d="M174.29,462.47c-1.14-3.71-2.75-9.25-2.75-9.25l-3.41,8.52a82.91,82.91,0,0,1-24.45-7.85c1.8-4.42,3.71-9.48,3.71-9.48l-10.28,5.84A90.05,90.05,0,0,1,111,426.37c55.52-6.41,133.7,15.46,133.7,15.46C217.12,459.23,193.58,464,174.29,462.47Z"/><path class="cls-10" d="M389.09,140.06l17.06-12.53c-1.69-15.11-4-27.68-4-27.68-22.69,9.3-37.86,22.79-47.85,37.77l5.43,23.71-11.62-13c-21,42.39-7.59,91.15-7.59,91.15s55.57-48.88,64.12-63.82c3.3-5.76,3.68-18.38,2.91-31.69C399.87,142.83,389.09,140.06,389.09,140.06Z"/><path class="cls-11" d="M402.18,99.85s-54.2,87-61.63,139.62c0,0,55.57-48.88,64.12-63.81,3.31-5.77,3.69-18.38,2.91-31.7-7.7-1.13-18.49-3.9-18.49-3.9l17.06-12.53C404.46,112.42,402.18,99.85,402.18,99.85Z"/><path class="cls-10" d="M436.4,153.49a97.2,97.2,0,0,0-38.83,10.86c-.36,5.8-.94,12.73-.94,12.73l-6.51-8.4c-40.17,25.74-54,74.62-54,74.62,32.58-1.73,54.57-11.4,69.42-23.81-1.21-3.69-3.08-9.15-3.08-9.15l7.7,5a83.11,83.11,0,0,0,15.43-20.53c-4-2.57-8.49-5.6-8.49-5.6l11.75-1.16A90,90,0,0,0,436.4,153.49Z"/><path class="cls-11" d="M405.57,219.5c-1.21-3.7-3.09-9.15-3.09-9.15l7.7,5a82.68,82.68,0,0,0,15.43-20.53c-4-2.57-8.49-5.6-8.49-5.6l11.76-1.16a90,90,0,0,0,7.52-34.55c-49,26.81-100.26,89.8-100.26,89.8C368.72,241.58,390.71,231.9,405.57,219.5Z"/><path class="cls-9" d="M572.74,215.48h10.14a10.62,10.62,0,0,0-6-1.81H322.81c-13.29,0-24.07,9.55-24.07,21.34v13.56c0,11.78,10.78,21.33,24.07,21.33L574,269.83Z"/><path class="cls-7" d="M320.05,248.57V235c0-11.79,10.78-21.34,24.07-21.34h-5.45c-13.29,0-24.07,9.55-24.07,21.34v13.56c0,11.78,10.77,21.33,24.07,21.33h5.38C330.79,269.87,320.05,260.33,320.05,248.57Z"/><path class="cls-7" d="M379.56,248.57V235c0-11.79,10.77-21.34,24.07-21.34h-5.46c-13.29,0-24.07,9.55-24.07,21.34v13.56c0,11.78,10.78,21.33,24.07,21.33h5.39C390.3,269.87,379.56,260.33,379.56,248.57Z"/><path class="cls-8" d="M428.49,213.72c-12.71,0-23,9.13-23,20.41v15.32c0,11.27,10.3,20.4,23,20.4H586.66v-3.42H586l-40.21-3.38-8.13-28.26s15.69-15.63,16.71-16S586,217.14,586,217.14h.65v-3.4H428.49Z"/><path class="cls-6" d="M576.41,241.69c0-16.53,9.63-24.54,9.63-24.54H431.73c-11.67,0-21.14,8.39-21.14,18.74v11.79c0,10.35,9.47,18.75,21.14,18.75H586S576.41,262.5,576.41,241.69Z"/><path class="cls-6" d="M410.59,235.89v11.79a16.8,16.8,0,0,0,.62,4.5c5.2-11.29,15.18-22.16,34.16-25.66C489.7,218.36,586,217.15,586,217.15H431.73C420.06,217.15,410.59,225.54,410.59,235.89Z"/><path class="cls-12" d="M568.55,327.88H580a11.17,11.17,0,0,0-6.78-2.27H285.68c-15,0-27.24,12-27.24,26.71v17c0,14.75,12.2,26.71,27.24,26.71L570,395.9Z"/><path class="cls-5" d="M405.3,325.67a25.8,25.8,0,0,0-26.05,25.55v19.17a25.79,25.79,0,0,0,26.05,25.54h179v-4.29h-.74l-45.51-4.22L528.86,352s17.76-19.56,18.91-20.06,35.8-2,35.8-2h.74v-4.26Z"/><path class="cls-6" d="M572.7,360.68C572.7,340,583.61,330,583.61,330H409A23.7,23.7,0,0,0,385,353.43v14.75A23.7,23.7,0,0,0,409,391.65H583.61S572.7,386.73,572.7,360.68Z"/><path class="cls-6" d="M385,353.43v14.75a23.22,23.22,0,0,0,.7,5.63c5.89-14.13,17.18-27.74,38.67-32.12C474.57,331.48,583.6,330,583.6,330H409A23.71,23.71,0,0,0,385,353.43Z"/><path class="cls-10" d="M249,271.56H237.48a13.2,13.2,0,0,1,6.79-1.8H532c15,0,27.25,9.49,27.25,21.19v13.46c0,11.71-12.2,21.2-27.25,21.2l-284.46-.08Z"/><path class="cls-11" d="M412.29,269.81c14.39,0,26.06,9.08,26.06,20.27v15.21c0,11.2-11.67,20.27-26.06,20.27H233.2v-3.4h.74l45.53-3.35,9.2-28.08s-17.76-15.51-18.92-15.91-35.81-1.62-35.81-1.62h-.74v-3.38H412.29Z"/><path class="cls-6" d="M244.81,297.58c0-16.41-10.9-24.37-10.9-24.37H408.62c13.22,0,23.94,8.34,23.94,18.62v11.71c0,10.28-10.72,18.62-23.94,18.62H233.91S244.81,318.26,244.81,297.58Z"/><path class="cls-6" d="M432.55,291.83v11.71a14.8,14.8,0,0,1-.69,4.46c-5.9-11.21-17.19-22-38.69-25.48-50.19-8.11-159.27-9.31-159.27-9.31H408.61C421.84,273.21,432.55,281.55,432.55,291.83Z"/><path class="cls-13" d="M506.5,304.42V291c0-11.7-12.2-21.19-27.26-21.19h27.32c15.05,0,27.26,9.49,27.26,21.19v13.47c0,11.7-12.21,21.19-27.26,21.19H479.61C494.49,325.45,506.5,316,506.5,304.42Z"/><path class="cls-7" d="M227.25,398.15H214.87a13.94,13.94,0,0,1,7.31-2H532.31c16.22,0,29.38,10.6,29.38,23.68v15c0,13.08-13.16,23.68-29.38,23.68l-306.66-.08Z"/><path class="cls-3" d="M403.31,396.2c15.52,0,28.1,10.14,28.1,22.64v17c0,12.51-12.58,22.65-28.1,22.65H210.25v-3.8h.8l49.08-3.75,9.92-31.37s-19.15-17.33-20.4-17.78-38.6-1.8-38.6-1.8h-.8V396.2Z"/><path class="cls-6" d="M222.77,427.23C222.77,408.89,211,400,211,400H399.36c14.25,0,25.8,9.31,25.8,20.8v13.08c0,11.49-11.55,20.81-25.8,20.81H211S222.77,450.32,222.77,427.23Z"/><path class="cls-6" d="M425.16,420.8v13.08a17,17,0,0,1-.75,5c-6.35-12.52-18.53-24.59-41.7-28.47C328.6,401.34,211,400,211,400H399.36C413.61,400,425.16,409.31,425.16,420.8Z"/><path class="cls-14" d="M658.57,465h-523a2.8,2.8,0,0,1-2.8-2.8v-1.29a2.81,2.81,0,0,1,2.8-2.8h523a2.8,2.8,0,0,1,2.8,2.8v1.29A2.81,2.81,0,0,1,658.57,465Z"/><path class="cls-3" d="M129.54,231.31l101-57.76,13.65,27L140.84,255.26Z"/><path class="cls-10" d="M319.82,66.78s-.8,7.85-7,8.39c6.19.55,7,8.4,7,8.4s.8-7.85,7-8.4C320.62,74.63,319.82,66.78,319.82,66.78Z"/><path class="cls-7" d="M212.75,6.44s-1.06,10.46-9.32,11.18c8.26.73,9.32,11.19,9.32,11.19s1.06-10.46,9.32-11.19C213.81,16.9,212.75,6.44,212.75,6.44Z"/><path class="cls-8" d="M169.5,100s-.71,7-6.25,7.51c5.54.49,6.25,7.51,6.25,7.51s.71-7,6.26-7.51C170.21,107,169.5,100,169.5,100Z"/><path class="cls-8" d="M660.64,267.63s-1.07,10.46-9.32,11.18c8.26.73,9.32,11.19,9.32,11.19s1.06-10.46,9.31-11.19C661.7,278.09,660.64,267.63,660.64,267.63Z"/><path class="cls-10" d="M75.32,175.51S74.26,186,66,186.69c8.26.73,9.32,11.19,9.32,11.19s1.06-10.46,9.31-11.19C76.38,186,75.32,175.51,75.32,175.51Z"/><path class="cls-10" d="M682.69,164.32s-1.06,10.46-9.32,11.19c8.26.72,9.32,11.18,9.32,11.18s1.06-10.46,9.31-11.18C683.75,174.78,682.69,164.32,682.69,164.32Z"/><path class="cls-8" d="M424.16,3s-1.06,10.46-9.32,11.19c8.26.72,9.32,11.18,9.32,11.18s1.06-10.46,9.32-11.18C425.22,13.46,424.16,3,424.16,3Z"/><path class="cls-7" d="M602,87.37s-.58,6.61-5.06,7.06c4.48.46,5.06,7.07,5.06,7.07s.58-6.61,5.06-7.07C602.58,94,602,87.37,602,87.37Z"/><path class="cls-15" d="M239.78,409.32l-13.94.71-1.76,41.36L217,454.83l.34,1.51,2.65.62,8.83-.14a14.66,14.66,0,0,0,2-1.95l-.27-.34,1.43-1Z"/><path class="cls-15" d="M277.55,454.83s-7-3.5-7.14-3.44L272,409.27l-17.28.06,7.83,44.23.85.58c-.21.74-.38,1.37-.42,1.57-.11.56,2.94.59,4,.77s4.16.52,6.15,1.07,4.48-1.07,4.48-1.07Z"/><path class="cls-16" d="M278,295.64c-2-5.24-4-3.16-7.6-9.49a13.84,13.84,0,0,1-1.28-3.51,17.72,17.72,0,0,0-5.55-9.28,19.61,19.61,0,0,0-18.15-4.09s2.5,14.21,3,17.1c-2.13,2.89-4.27,5.85-4.27,5.85s-4.48,23.37,2.55,25.34,8.31-1.19,11.75-2.83,6.78,2.84,11.92-.29c3.92-2.39,1.92-8.35,4-9.47S280.18,301.29,278,295.64Z"/><path class="cls-16" d="M241.78,281.06c-.13-.06-3.35-1.88-6.37-3.58l18.75-20.88s-5.68-1.1-6-1.14-8.49,2.49-8.49,2.49l-8.4,2.28c-6.42,23.4-14.4,27.63-14.4,27.64a9,9,0,0,0-2.8,3c-3.18,5.15,0,8.38,1.87,9.86s-1.23,7,2.18,10.05c4.46,4,8.59.23,11.66,2.48s3.74,5.6,11,5S248,293.78,248,293.78,242,281.16,241.78,281.06Z"/><path class="cls-8" d="M273.61,323.71s6.19,29.55,4.39,32.75-25.35,4.19-25.35,4.19l-1-37.93,9-13.58Z"/><path class="cls-17" d="M266.14,357.92l-4.4-12.06s-14.49-5.28-15.41-5.34-13.18,5.34-13.18,5.34-3.75,7.59-4.49,8.95c-.4.76.53,5.4,1.45,9.39l-5.2.25-3.45,76.26s7.48,4,15.54.57l6.62-66.61,5.75-.86,8.63,66s6.91,5.18,16.69.86l-6.48-73.49A36.55,36.55,0,0,0,266.14,357.92Z"/><path class="cls-15" d="M238,300.17s6.43-1.35,18.39-.5-5.53,7.59-5.53,7.59-6.14-.2-6.4-.25S238,300.17,238,300.17Z"/><path class="cls-15" d="M253.17,293.41H242.55v18.64h10.62Z"/><path class="cls-18" d="M253.15,296.6v-6.36h-10.6v5.41C244.84,296.88,248.21,297.58,253.15,296.6Z"/><path class="cls-15" d="M268,272.67a3.62,3.62,0,0,0-3.26.13,17.32,17.32,0,1,0-34.64,0,3.61,3.61,0,0,0-3.26-.13c-2,1-2.55,3.71-1.35,6.15s3.75,3.63,5.7,2.67a3.77,3.77,0,0,0,.73-.5,15.61,15.61,0,0,0,31,0,3.37,3.37,0,0,0,.73.5c1.95,1,4.5-.24,5.7-2.67S270,273.63,268,272.67Z"/><path class="cls-19" d="M243.06,276.21a1.46,1.46,0,1,1-1.53-1.38A1.46,1.46,0,0,1,243.06,276.21Z"/><path class="cls-19" d="M255.62,276.35a1.46,1.46,0,1,1-1.54-1.38A1.46,1.46,0,0,1,255.62,276.35Z"/><path class="cls-16" d="M244.66,273.23a12.58,12.58,0,0,0-2.11-.58,7.38,7.38,0,0,0-2-.08,6.64,6.64,0,0,0-2,.5l-.25.09-.23.12-.49.24c-.33.16-.64.37-1,.53a6.79,6.79,0,0,1,.68-.94,5.47,5.47,0,0,1,.89-.77,4.7,4.7,0,0,1,2.26-.83,4.94,4.94,0,0,1,2.38.35A4.4,4.4,0,0,1,244.66,273.23Z"/><path class="cls-16" d="M250.54,273.2a4.53,4.53,0,0,1,1.87-1.38,4.93,4.93,0,0,1,2.38-.36,4.73,4.73,0,0,1,2.26.8,5.56,5.56,0,0,1,.9.76,7.54,7.54,0,0,1,.69.94c-.37-.16-.67-.36-1-.52l-.49-.23-.24-.12-.25-.09a6.94,6.94,0,0,0-2-.49,7.4,7.4,0,0,0-2,.1A14,14,0,0,0,250.54,273.2Z"/><path class="cls-18" d="M248.16,274.22a8.4,8.4,0,0,0,.13,2.29,5.78,5.78,0,0,0,.32,1.13,3,3,0,0,0,.68,1.07c.39.3.56.39.67.66a1.06,1.06,0,0,1-.06.83,3.2,3.2,0,0,1-1.58,1.36,2.59,2.59,0,0,0,2.07-1.08,1.59,1.59,0,0,0,.22-1.34,1.77,1.77,0,0,0-.75-.91,2.41,2.41,0,0,1-.62-.86c-.16-.32-.27-.67-.4-1C248.6,275.66,248.39,275,248.16,274.22Z"/><path class="cls-18" d="M243.38,283.36a10,10,0,0,0,1.25.74,11.15,11.15,0,0,0,1.33.58,9,9,0,0,0,2.81.51,7.42,7.42,0,0,0,2.79-.55,10.3,10.3,0,0,0,2.47-1.51,8.56,8.56,0,0,1-1.1,1,7.72,7.72,0,0,1-1.26.77,7.14,7.14,0,0,1-1.41.49,8.28,8.28,0,0,1-1.49.16,7.76,7.76,0,0,1-2.9-.61A8.57,8.57,0,0,1,243.38,283.36Z"/><path class="cls-10" d="M268.5,303.89c-5.75-5.58-13.7-4.4-13.7-4.4a12.57,12.57,0,0,1-2.66,2.07,10.91,10.91,0,0,1-4.6,1.24h-.19a11,11,0,0,1-4.61-1.24,12.91,12.91,0,0,1-2.66-2.07s-8-1.18-13.7,4.4-11.5,17.91-11.5,17.91,7.27,6.63,14.21,7.47c0,0,3.38,15.57,4.06,16.59a36.44,36.44,0,0,0,8.56,2.5,30,30,0,0,0,5.41.5h.64a29.93,29.93,0,0,0,5.41-.5,36.43,36.43,0,0,0,8.57-2.5c.68-1,4.06-16.59,4.06-16.59,6.93-.84,14.21-7.47,14.21-7.47S274.26,309.48,268.5,303.89Z"/><path class="cls-9" d="M248.06,341.66a3.66,3.66,0,0,1,3.32,1.21l-.09,4.05-2.61,1.21s-3.23-2.75-3-2.82A38.68,38.68,0,0,0,248.06,341.66Z"/><path class="cls-9" d="M254.71,368.06,220.31,378,217,352.83l34.4-10Z"/><path class="cls-6" d="M217.47,374l3,2.55,32.93-9.44-3-23.73-2.33-1Z"/><path class="cls-6" d="M253.42,367.07l-2.35-2-4.3-4.72.26-13,1.1-5,2.34.94Z"/><path class="cls-8" d="M251.07,365l-34.4,10-3-23.38,34.4-9.95Z"/><path class="cls-6" d="M234.19,315.77a31.84,31.84,0,0,0-2.2,3,23.2,23.2,0,0,0-1.74,3.26,15.55,15.55,0,0,0-1.07,3.52,13.08,13.08,0,0,0-.09,3.7,9.15,9.15,0,0,1-.36-3.76,12.36,12.36,0,0,1,1-3.69,16.6,16.6,0,0,1,1.91-3.29A15.28,15.28,0,0,1,234.19,315.77Z"/><path class="cls-15" d="M227.05,358.25c-6.06-10.26-3.25-22.74-.86-29.64a35.33,35.33,0,0,1-10.72-6.3c-9.66,21.83,6.71,40.51,6.71,40.51l0,0c.31.71.54,1.34.54,1.34,3.86,7,4,6.86,4.31,6.76s-.49-3.41-.15-3.4,2.78,4,3,3.63-1.62-4.34-1.36-4.41,2.56,3.83,3.06,3.49-2.15-4.52-1.64-4.62,3.12,4.25,3.53,3.87-2.45-5.26-3.36-6.82a.3.3,0,0,1,.28-.44c3.58.21,3.87,0,3.8-.39S229.83,359.52,227.05,358.25Z"/><path class="cls-9" d="M267.57,300.59c-7.42,26.73,1.54,34.61,1.58,34.82l-1.34,6.22s-18.29-11.9-6.7-43.58a1.59,1.59,0,0,1,2.16-.95l3.47,1.6A1.59,1.59,0,0,1,267.57,300.59Z"/><path class="cls-15" d="M283.78,365.85s-.23-.59-.46-1.29h0L283,362c-.21-5.88-1.19-26.71-4.4-39-2.44,1.94-7.62,5.61-12.66,6.26,3.16,6.6,9.76,21.81,10.91,35.64-1.17,2.63-2.73,6.28-2.6,6.5s.53.28,2.94-2.12a.28.28,0,0,1,.47.14c.34,1.67,1.46,6.94,1.9,6.95s-.35-4.72.08-5,1.17,4.39,1.74,4.31-.25-4.28,0-4.4,1.44,3.83,1.8,4-.42-4.21-.18-4.43,1.78,2.61,2,2.51S285.43,373.23,283.78,365.85Z"/><path class="cls-16" d="M227.07,272.57S226,252.7,248.13,251.39c0,0-.69,19.52-18,21.41l-1.33-2.59Z"/><path class="cls-16" d="M248.13,251.38s18-1,18.91,21a4.7,4.7,0,0,0-2.27.43s-14.23-3.56-17.76-17.35Z"/><path class="cls-17" d="M223,456.34c-3.6.36-5.31-.42-6-1.51l-2.45,1.59a1.16,1.16,0,0,0,.62,2.13H231a1,1,0,0,0,1-1v-4.29C231,454.29,228.59,455.78,223,456.34Z"/><path class="cls-17" d="M271.5,456.34c3.61.36,5.31-.42,6.05-1.51l2.44,1.59a1.16,1.16,0,0,1-.61,2.13H263.49a1,1,0,0,1-1-1v-4.29C263.5,454.29,265.9,455.78,271.5,456.34Z"/><path class="cls-6" d="M603.84,314.1l18.35,1.47-5.92,14.85-9.27-.74-3.85,12.38c-.95-.43-1.64-.76-1.78-.85s-1.3-6.33-2.2-12.13Z"/><path class="cls-9" d="M614.31,450.67v6.47a1,1,0,0,0,1,1h15.1a1.1,1.1,0,0,0,.59-2l-8.47-5.42S619.17,453.11,614.31,450.67Z"/><path class="cls-15" d="M584.66,176.35a.31.31,0,0,1-.41-.34c.38-1.8,1.54-7.46,1.1-7.66s-1.67,4.79-2.2,4.85.73-4.82.13-5-1.58,4.32-1.86,4.34.22-4.38-.07-4.69-1.39,4.33-1.72,4.45S579,169,578.7,169s-.5-.06-2,7.91c0,0-.09,2.92-.61,3.6l1.15,2.35,3.57.12s7.74-7,7.68-7.44S588.05,175,584.66,176.35Z"/><path class="cls-15" d="M621.34,178.11a.3.3,0,0,0,.51-.12c.49-1.77,2-7.34,2.52-7.32s-.7,5-.26,5.33,1.55-4.62,2.16-4.5-.56,4.57-.33,4.71,1.81-4,2.21-4.14-.74,4.49-.5,4.74,2.08-2.68,2.36-2.55.47.17-1.8,8c0,0-1.25,2.64-1.11,3.48L625,187.28l-3.23-1.52s-3.69-9.77-3.44-10.12S618.92,175.38,621.34,178.11Z"/><path class="cls-15" d="M593,241.92l.05,13.63-13.23-2,2.21-15.32Z"/><path class="cls-20" d="M581,245.24l1-7.05,11,5v2.69C590.39,246.55,585.43,247.13,581,245.24Z"/><path class="cls-9" d="M569.11,450v7.1a1.06,1.06,0,0,1-1.06,1.06H551.43a1.2,1.2,0,0,1-.65-2.21L560.1,450S563.76,452.63,569.11,450Z"/><path class="cls-17" d="M553.93,329.35c0-1.52-3.92,3-3.84,1.75,1.55-25.21,50.79-4.08,50.79-4.08l12,8.83,13.57,116.82s-7.37,2.13-12.22.38L584.2,353l-3.69-1.42S564.07,340.06,553.93,329.35Z"/><path class="cls-11" d="M550,332.13c0,.29,0,.59,0,.9C550,332.72,550,332.42,550,332.13Z"/><path class="cls-11" d="M550,333.05c0,.31,0,.64,0,1C550,333.69,550,333.36,550,333.05Z"/><path class="cls-11" d="M550,334.15q0,.51,0,1.05Q549.93,334.66,550,334.15Z"/><path class="cls-11" d="M550.09,331.1c0,.27,0,.55-.05.84C550.05,331.65,550.07,331.37,550.09,331.1Z"/><path class="cls-17" d="M550.09,325.37c10.15,10.71,30.42,26.16,30.42,26.16l3.7,1.42-3.7-1.42L569.09,452.67s-8.14,1.55-12.8-1C556.29,451.7,549.43,355.43,550.09,325.37Z"/><path class="cls-11" d="M626.47,452.67a31.84,31.84,0,0,1-6.73,1.06A31.84,31.84,0,0,0,626.47,452.67Z"/><path class="cls-11" d="M615.67,453.45c.33.07.66.12,1,.16C616.33,453.57,616,453.52,615.67,453.45Z"/><path class="cls-11" d="M619.74,453.73a19.94,19.94,0,0,1-2.56-.06A19.94,19.94,0,0,0,619.74,453.73Z"/><path class="cls-21" d="M612.9,335.85l1.93,16.67c-5.12,2-17.61,4.11-27-16.48-3-6.5-3.74-11.17-3.19-14.53A133,133,0,0,1,600.88,327Z"/><path class="cls-6" d="M567.72,267.8c.57,0,9.09-19.34,9.09-19.34,7.3,5.12,17.2,1.56,17.2,1.56s39.85,72.93,13.12,84.3-51.92-2.46-51.92-2.46-5.69-14.78-5.69-15.35S567.15,267.8,567.72,267.8Z"/><path class="cls-5" d="M619.64,185.91s1.73,34.6-1.51,40.94C607.37,247.89,594,250,594,250s-4.59,73.59-.8,91.22c0,0,12.6,3.88,31.17-4.84,0,0-14.21-57.05-13.45-64.25,0,0,22.74-20.28,23.5-44.17a161.56,161.56,0,0,0-5.5-45.11Z"/><path class="cls-5" d="M558.33,338.59s1.43-27.39,7.68-53.36,10.8-36.77,10.8-36.77c-8.39-9.24-7-17.59-6.25-28.43.85-12.51,13.07-37.53,13.07-37.53l-8.24-5.41c-39.52,47.48-17.62,85.3-17.62,85.3S543,314.7,541,330.63A121.17,121.17,0,0,0,558.33,338.59Z"/><path class="cls-22" d="M610.54,272.08a9.38,9.38,0,0,1-1.58-1.51,16,16,0,0,1-3.15-6.85,19.93,19.93,0,0,0,3.38,6.65,7.93,7.93,0,0,0,1.85,1.68l-.11.11a.61.61,0,0,0,0,.14,4.29,4.29,0,0,1-3-.7,14,14,0,0,1-2.52-1.81,18.37,18.37,0,0,0,2.62,1.63A5.64,5.64,0,0,0,610.54,272.08Z"/><path class="cls-22" d="M558.07,262.22a8.84,8.84,0,0,0,1.8-1.66,19.42,19.42,0,0,0,3.39-6.65,16.14,16.14,0,0,1-3.15,6.85,9.06,9.06,0,0,1-1.59,1.51,4,4,0,0,0,1.12-.13,7.62,7.62,0,0,0,1.42-.53,18.08,18.08,0,0,0,2.62-1.63,13.94,13.94,0,0,1-2.53,1.81,7.17,7.17,0,0,1-1.45.61,3,3,0,0,1-1.62.08l-.3-.08Z"/><path class="cls-17" d="M574,214.12l-.8,9.35,1.48.93L577.44,213Z"/><path class="cls-18" d="M576,222.51c.41,2.11-.64,4.1-2.33,4.42s-3.4-1.13-3.8-3.24.64-4.1,2.33-4.43S575.61,220.39,576,222.51Z"/><path class="cls-15" d="M573.6,231.15a30.58,30.58,0,0,1-.14-7.85c.06-.51.08-1,.09-1.54a16.68,16.68,0,1,1,33,3.67,3.62,3.62,0,0,1,3.23.39c1.77,1.26,1.93,4.07.36,6.28s-4.27,3-6,1.72a2.86,2.86,0,0,1-.64-.61c-2.42,7.85-10.22,12.72-18.06,11A15.35,15.35,0,0,1,573.6,231.15Z"/><path class="cls-19" d="M591.69,223.67a1.46,1.46,0,0,0,1.37,2,1.43,1.43,0,0,0,1.32-.91,1.45,1.45,0,1,0-2.69-1.1Z"/><path class="cls-19" d="M579.29,221.82a1.46,1.46,0,0,0,1.38,2,1.43,1.43,0,0,0,1.32-.91,1.46,1.46,0,0,0-2.7-1.09Z"/><path class="cls-18" d="M589.76,233.86a10,10,0,0,1-2.34.8,7.15,7.15,0,0,1-2.44.09,6.07,6.07,0,0,1-2.29-.79,8.92,8.92,0,0,1-1.9-1.58,6.78,6.78,0,0,0,1.78,1.77,6,6,0,0,0,2.37.9,6.73,6.73,0,0,0,2.53-.17A7.61,7.61,0,0,0,589.76,233.86Z"/><path class="cls-17" d="M590.51,220.72a12.92,12.92,0,0,1,2.17-.23,7.08,7.08,0,0,1,3.89,1c.79.45,1.36,1,1.78,1.28a4.84,4.84,0,0,0-1.28-1.94,4.67,4.67,0,0,0-2.1-1.16,4.84,4.84,0,0,0-2.39-.05A4.55,4.55,0,0,0,590.51,220.72Z"/><path class="cls-17" d="M584.72,219.76a4.68,4.68,0,0,0-1.62-1.66,5,5,0,0,0-2.29-.73,4.77,4.77,0,0,0-2.36.44,4.93,4.93,0,0,0-1.83,1.43,17.37,17.37,0,0,1,2.1-.64,6.64,6.64,0,0,1,2-.17,7.29,7.29,0,0,1,2,.42A13,13,0,0,1,584.72,219.76Z"/><path class="cls-18" d="M587.24,221.6a21.66,21.66,0,0,0-1.89,2.06,18.67,18.67,0,0,0-1.64,2.29,5.28,5.28,0,0,0-.71,1.68c0,.31,0,.61.48,1.11a7.81,7.81,0,0,0,1.1.91,9.86,9.86,0,0,0,1.22.7,15,15,0,0,1-2-1.91,2.26,2.26,0,0,1-.32-.5,1,1,0,0,1,.1-.52,7.81,7.81,0,0,1,.6-1.19c.46-.78,1-1.54,1.5-2.31S586.74,222.39,587.24,221.6Z"/><path class="cls-17" d="M575.78,204.14s-4.92-.95,1.13-3.91,20.88-4.7,28.63,2c0,0,2.61-3.35,5-1.88s-2.44,3.1-2.44,3.1,3.28.63,3.91,2.44c.46,1.35-1.54.95-2.61.65,1.78.73,7,5.67.22,19.17-1.21-.56-9-11.65-9-11.65s-15.64,5.13-12.79.87c0,0-18.21,4.58-13.8-3.68C574,211.21,567.28,210.2,575.78,204.14Z"/><path class="cls-17" d="M609.56,225.66a3.2,3.2,0,0,0-3-.23c-1.8.67-3,4.71-3,4.71s-5.9,4.83-3-16.23c2.83-20.68,6.74,3.45,6.74,3.45Z"/><path class="cls-9" d="M569.16,160.28l-2.55-.25a2.76,2.76,0,0,1,1.55-.31L632.08,166c3.34.33,5.82,3,5.53,6l-.34,3.41c-.29,3-3.24,5.1-6.58,4.77l-63.2-6.23Z"/><path class="cls-7" d="M631.91,174.85l.33-3.4c.29-3-2.18-5.64-5.53-6l1.38.14c3.34.33,5.82,3,5.52,6l-.33,3.41c-.29,3-3.24,5.1-6.58,4.77l-1.36-.13C628.68,180,631.61,177.82,631.91,174.85Z"/><path class="cls-7" d="M616.94,173.38l.33-3.41c.29-3-2.18-5.63-5.53-6l1.38.13c3.34.33,5.82,3,5.52,6l-.33,3.41c-.29,3-3.24,5.1-6.58,4.77l-1.36-.13C613.71,178.48,616.65,176.34,616.94,173.38Z"/><path class="cls-8" d="M605.49,163.41c3.2.31,5.56,2.86,5.28,5.7l-.38,3.85c-.27,2.84-3.09,4.88-6.29,4.57l-39.79-3.92.09-.86.16,0,10.2.15L577.5,166s-3.56-4.32-3.8-4.45-7.92-1.19-7.92-1.19l-.16,0,.08-.86Z"/><path class="cls-6" d="M567.59,166.78a8.25,8.25,0,0,0-1.81-6.41l38.81,3.82c2.94.29,5.11,2.63,4.86,5.24l-.29,3c-.26,2.6-2.85,4.48-5.79,4.2l-38.81-3.82S567.08,172,567.59,166.78Z"/><path class="cls-6" d="M609.45,169.43l-.3,3a4.16,4.16,0,0,1-.26,1.12,11.17,11.17,0,0,0-8-7.3c-10.95-3.15-35.16-5.84-35.16-5.84l38.82,3.82C607.53,164.48,609.7,166.82,609.45,169.43Z"/><path class="cls-5" d="M491.65,258.44,489,264.32a1,1,0,0,0,.49,1.28l13.76,6.17a1.09,1.09,0,0,0,1.36-1.6l-5.33-8.3A8.47,8.47,0,0,1,491.65,258.44Z"/><path class="cls-5" d="M474.15,258.44l-2.63,5.88a1,1,0,0,0,.48,1.28l13.77,6.17a1.09,1.09,0,0,0,1.36-1.6l-5.33-8.3A8.49,8.49,0,0,1,474.15,258.44Z"/><path class="cls-17" d="M444.42,96.32,443,105.5l-3.09-12.25s4.33-2.1,4.53-1.33A34.37,34.37,0,0,1,444.42,96.32Z"/><path class="cls-15" d="M419.81,116.08,418.48,132l14-.67-1.62-14.06Z"/><path class="cls-18" d="M431.64,123.92l-.78-6.69-11.05-1.15-.46,5.5C421.55,123.77,425.5,126,431.64,123.92Z"/><path class="cls-18" d="M440.22,105.39c-.84,1.74-.39,3.7,1,4.37s3.21-.19,4-1.94.39-3.7-1-4.37S441.07,103.64,440.22,105.39Z"/><path class="cls-15" d="M442.26,106.66c.07-.45.17-.9.28-1.35a15,15,0,1,0-29.49-4.46,3.2,3.2,0,0,0-2.89-.41c-1.83.67-2.61,3.07-1.77,5.35s3,3.58,4.84,2.9a3,3,0,0,0,.7-.38A14,14,0,0,0,427,122a13.4,13.4,0,0,0,9.33-3.21C439.83,116.28,441.57,110.89,442.26,106.66Z"/><path class="cls-18" d="M431.35,101.86c0,.86,0,1.7.08,2.52a5.55,5.55,0,0,0,.46,2.22,2.13,2.13,0,0,1,.59,1.31,1.74,1.74,0,0,1-.65,1.38,2.86,2.86,0,0,1-2.57.51,3.63,3.63,0,0,0,2.1-1,1.14,1.14,0,0,0,.31-.86c0-.32-.13-.38-.51-.91a3.27,3.27,0,0,1-.41-1.37,6.47,6.47,0,0,1,0-1.32A8.6,8.6,0,0,1,431.35,101.86Z"/><path class="cls-19" d="M426.37,102.79a1.3,1.3,0,1,1-1-1.14A1.3,1.3,0,0,1,426.37,102.79Z"/><path class="cls-19" d="M437.55,104.05a1.31,1.31,0,1,1-1-1.14A1.34,1.34,0,0,1,437.55,104.05Z"/><path class="cls-18" d="M424.19,111.84a8.53,8.53,0,0,0,1.08.82,10.35,10.35,0,0,0,1.16.68,7.86,7.86,0,0,0,2.54.77,6.69,6.69,0,0,0,2.63-.19,9.79,9.79,0,0,0,2.45-1.11,7.36,7.36,0,0,1-2.38,1.36,6.3,6.3,0,0,1-2.75.29,7.29,7.29,0,0,1-2.61-.89A7.89,7.89,0,0,1,424.19,111.84Z"/><path class="cls-17" d="M428,100a13.43,13.43,0,0,0-1.91-.45,6.48,6.48,0,0,0-1.81,0,5.81,5.81,0,0,0-1.75.46c-.43.13-1.49.76-1.76.88a4.41,4.41,0,0,1,3.39-2.36,4.35,4.35,0,0,1,2.15.29A3.9,3.9,0,0,1,428,100Z"/><path class="cls-17" d="M433.77,100.69a4.14,4.14,0,0,1,1.91-.88,4.42,4.42,0,0,1,2.16.14,4.17,4.17,0,0,1,1.83,1.15,4.25,4.25,0,0,1,1,1.82c-.25-.17-1.16-1-1.56-1.2a5.93,5.93,0,0,0-1.62-.79,6.66,6.66,0,0,0-1.79-.32A14.88,14.88,0,0,0,433.77,100.69Z"/><path class="cls-23" d="M427.52,190.55s-2.91,19.82,16.23,23.27,43,2.42,43,2.42L490,261.77l10,.51s25.74-63.26-9.88-73.14l-32,.15L445,188.35s-13.34-3.29-13.5-2.67S427.84,190.87,427.52,190.55Z"/><path class="cls-24" d="M409.93,190.65s-2.92,19.82,16.22,23.27,43,2.43,43,2.43l3.32,45.52,10,.51s25.73-63.25-9.89-73.14l-32,.16-13.18-.94s-13.33-3.3-13.49-2.67S410.24,191,409.93,190.65Z"/><path class="cls-8" d="M434.05,125.63s13.18,1.67,16.52,4.39S470,172.71,470,172.71L456.64,188.4l-28.45.21s-21.35,11.51-34.74.63-6.48-48.76,1.26-56.92,21.55-7.95,21.55-7.95S428.82,133.16,434.05,125.63Z"/><path class="cls-22" d="M408.52,145.51a56.75,56.75,0,0,1,1,6.6c.11,1.11.16,2.23.22,3.34s.06,2.23.05,3.34a45.26,45.26,0,0,1-.55,6.68,22.26,22.26,0,0,1-1.94,6.4,33.56,33.56,0,0,0,1.27-6.49,65.84,65.84,0,0,0,.35-6.6c.05-2.2,0-4.41-.07-6.63S408.64,147.73,408.52,145.51Z"/><path class="cls-22" d="M448,144c.6,3.24,1.24,6.47,1.89,9.7s1.35,6.43,2.13,9.63,1.62,6.36,2.66,9.47a47,47,0,0,0,1.78,4.57,17.69,17.69,0,0,0,2.52,4.19,15.8,15.8,0,0,1-2.9-4,37.49,37.49,0,0,1-2-4.53c-.6-1.55-1.11-3.13-1.59-4.71s-.88-3.18-1.28-4.78-.74-3.22-1.07-4.84-.62-3.24-.88-4.87C448.65,150.6,448.23,147.33,448,144Z"/><path class="cls-25" d="M476.5,151.27c-2.43-3.79-22.38-10.22-22.38-10.22v6.41l20.3,7.1Z"/><path class="cls-22" d="M475.07,151,451.9,140.33v4.15l22.59,8.15Z"/><path class="cls-25" d="M473.78,151l-24.45-9.25v7.15l24.2,3.72Z"/><path class="cls-22" d="M476.5,150.28s4.71-11,6.64-13.31c0,7.25-2.93,16.37-2.93,16.37Z"/><path class="cls-25" d="M478.56,150.77l5.71-14.44v6.88l-3.92,9.42Z"/><path class="cls-22" d="M480.35,151l6.23-14v5Z"/><path class="cls-26" d="M480.35,194.29l7.85-13.53V137.49L480.35,151Z"/><path class="cls-5" d="M444.17,187.75l27.8,6.54V151l-27.8-6.53Z"/><path class="cls-27" d="M472,151c2.45-1.17,7.58-.75,8.38,0C479.93,153.49,472.6,154,472,151Z"/><path class="cls-28" d="M472,194.29c0,1.05,8.42,1.05,8.42,0V151c-.86,1.26-7.47,1.23-8.42,0Z"/><path class="cls-15" d="M454.58,179.36c-.08-.66-5.11-1.4-7-1.5-1.4-.07-10.68-.38-13.84-.53l.23.82-.05,3.58-.51,2.38c2.77.17,9.54.44,10.95.72a34.11,34.11,0,0,1,5.15,1.79s1.36-.3-.37-1.05a8.35,8.35,0,0,1-2.77-2c-.24-.26,0-.74.19-.69,4.7,1.23,5.19,1.43,5.19,1.43s5.52,0,0-1.27c-3.3-.74-4.48-1.18-4.77-1.55-.13-.15.1-.69.3-.7,2.85-.18,8,.83,6.57.17a36.9,36.9,0,0,0-6.15-1.36c-.08,0-.22-.53.16-.57C450.65,178.82,454.66,180,454.58,179.36Z"/><path class="cls-22" d="M405.3,171.32c1.16.28,2.3.61,3.46.85s2.33.48,3.49.72c2.33.43,4.67.8,7,1.13s4.7.59,7.06.82,4.74.43,7.06.56l.31,0,.07.27a19.36,19.36,0,0,1,.43,2.35,18.73,18.73,0,0,1,.14,2.37,14.5,14.5,0,0,1-.21,2.37,10.6,10.6,0,0,1-.68,2.29l0,.06-.05,0-2.59,1.73-2.59,1.72c.8-.65,1.62-1.29,2.45-1.92l2.46-1.91-.08.1a10.4,10.4,0,0,0,.54-2.2,14.4,14.4,0,0,0,.11-2.28,21.93,21.93,0,0,0-.2-2.28,17.82,17.82,0,0,0-.46-2.22l.38.29c-1.23,0-2.39-.12-3.59-.2s-2.38-.18-3.56-.31q-3.56-.36-7.09-.91t-7-1.39c-1.16-.29-2.31-.58-3.45-.94S406.42,171.72,405.3,171.32Z"/><path class="cls-17" d="M444.7,87.63s4.39.14-.22-3.58-17-8.07-24.93-3.88c0,0-1.59-3.38-3.88-2.57s1.5,3.13,1.5,3.13-2.93-.1-3.83,1.34c-.66,1.06,1.13,1.11,2.11,1.06-1.66.29-8.06,4.32-4.85,17.22,1.14-.25,7.64-9.68,7.64-9.68s14.86,8.26,13.39,1.7c0,0,15.4,9.6,13.22,1.67C444.85,94,450.8,94.47,444.7,87.63Z"/><path class="cls-17" d="M410.59,100.43a2.79,2.79,0,0,1,2.55.61c1.32,1,1.18,4.75,1.18,4.75s6.32,4.07,5.65-13.17c-.71-18.35-5.27,1.47-5.27,1.47Z"/><path class="cls-17" d="M342,444.34l2.64,5.88a1,1,0,0,1-.49,1.27l-13.77,6.17a1.09,1.09,0,0,1-1.35-1.59l5.32-8.31S338.57,448.54,342,444.34Z"/><path class="cls-17" d="M359.85,443.64l2.64,5.88a1,1,0,0,1-.49,1.27L348.23,457a1.09,1.09,0,0,1-1.35-1.6l5.32-8.3A8.46,8.46,0,0,0,359.85,443.64Z"/><path class="cls-16" d="M375.94,253.21s-15-2.53-20,14.23l6.22,9.3s13-5,13.08-5.49S375.94,253.21,375.94,253.21Z"/><path class="cls-16" d="M400.09,260.76s4.37,6.59,6.61,9.19c5.62,6.57,6.34,4.51,9.83,10.16,3.76,6.09,0,9.91-2.21,11.67s1.45,8.25-2.58,11.9c-5.29,4.76-10.17.27-13.81,2.94s-4.43,6.63-13,5.88-8.54-28.92-8.54-28.92,7-14.94,7.33-15.06Z"/><path class="cls-16" d="M355.9,267.45s-.51,5.17-2.22,8.15c-4.3,7.49-6.62,5-9,11.23-2.58,6.69,1.88,9.73,4.33,11.06s.1,8.38,4.74,11.21c6.08,3.71,10.05-1.62,14.11.33s5.58,5.7,13.91,3.37,3-30,3-30-9.7-13.37-10-13.44S355.9,267.45,355.9,267.45Z"/><path class="cls-15" d="M377.67,300.81s14.38-2.64,21-2.42-4,17.42-4,17.42l-10.8.24s-6.62-7.4-6.19-8.26,0-6.5,0-6.5Z"/><path class="cls-15" d="M390.5,287.09l3.79,11.52s-3.3,6.82-13.41,3.88c0,0,1.15-2.39-.4-7.3S390.5,287.09,390.5,287.09Z"/><path class="cls-20" d="M390.5,287.09l1.77,5.38c-1.06,3.93-4.5,6.61-11,7.44a15.24,15.24,0,0,0-.8-4.72C378.9,290.17,390.5,287.09,390.5,287.09Z"/><path class="cls-18" d="M367.36,278.66c.82,1.87.27,3.92-1.22,4.57s-3.38-.32-4.2-2.19-.27-3.92,1.22-4.58S366.54,276.79,367.36,278.66Z"/><path class="cls-15" d="M366.94,287.15a28.9,28.9,0,0,1-1.77-7.22c-.06-.48-.15-1-.25-1.44a15.8,15.8,0,1,1,31.27-3.56,3.37,3.37,0,0,1,3.07-.32c1.9.78,2.64,3.34,1.65,5.71s-3.32,3.66-5.21,2.87a3.27,3.27,0,0,1-.72-.43,14.81,14.81,0,0,1-14.36,14A14.51,14.51,0,0,1,366.94,287.15Z"/><path class="cls-18" d="M376.86,275.29a9.56,9.56,0,0,1,.5,2.66,6.49,6.49,0,0,1-.05,1.39,3.47,3.47,0,0,1-.48,1.42c-.34.44-.52.59-.57.94a1.25,1.25,0,0,0,.3.94,3.79,3.79,0,0,0,2.2,1.1,3.07,3.07,0,0,1-2.68-.64,1.85,1.85,0,0,1-.63-1.47,2.26,2.26,0,0,1,.67-1.35,3.37,3.37,0,0,0,.4-1.08c.09-.4.12-.84.18-1.26C376.77,277.07,376.8,276.19,376.86,275.29Z"/><path class="cls-19" d="M382.06,276.46a1.38,1.38,0,1,0,1.14-1.16A1.4,1.4,0,0,0,382.06,276.46Z"/><path class="cls-19" d="M370.23,277.35a1.38,1.38,0,1,0,1.13-1.15A1.37,1.37,0,0,0,370.23,277.35Z"/><path class="cls-29" d="M382.29,287.16a4.62,4.62,0,0,0-3.83.51s-2-1.26-3.58-.06a3.81,3.81,0,0,0,4,2.79A3.4,3.4,0,0,0,382.29,287.16Z"/><path class="cls-18" d="M384,286.09a10.27,10.27,0,0,1-1.17.82,10.14,10.14,0,0,1-1.26.67,8.26,8.26,0,0,1-2.7.72,7.23,7.23,0,0,1-2.77-.3,10.59,10.59,0,0,1-2.54-1.27,9,9,0,0,0,1.15.88,7.89,7.89,0,0,0,1.3.65,7.6,7.6,0,0,0,1.42.37,8,8,0,0,0,1.47,0,7.72,7.72,0,0,0,2.79-.84A8.26,8.26,0,0,0,384,286.09Z"/><path class="cls-16" d="M380.43,273.5a14.74,14.74,0,0,1,2-.41,6.77,6.77,0,0,1,1.91,0,6.69,6.69,0,0,1,1.82.55c.45.16,1.55.86,1.83,1a4.5,4.5,0,0,0-1.38-1.73,4.59,4.59,0,0,0-2.11-.9,4.7,4.7,0,0,0-2.27.22A4.18,4.18,0,0,0,380.43,273.5Z"/><path class="cls-16" d="M374.34,274a4.25,4.25,0,0,0-2-1,4.56,4.56,0,0,0-2.29.06,4.28,4.28,0,0,0-2,1.15,4.38,4.38,0,0,0-1.17,1.88c.27-.18,1.26-1,1.69-1.21a6.35,6.35,0,0,1,1.75-.78,6.9,6.9,0,0,1,1.89-.26A15.24,15.24,0,0,1,374.34,274Z"/><path class="cls-15" d="M402.69,371.17s4.24,20-15,24.7-43.52,5.22-43.52,5.22l-.45,46.5-10.13,1.16s-30.22-62.66,5.36-75l32.56-1.89,13.34-1.81s13.34-4.21,13.55-3.58S402.39,371.51,402.69,371.17Z"/><path class="cls-15" d="M420.58,370.15s4.24,20-15,24.7-43.53,5.22-43.53,5.22l-.45,46.5-10.13,1.16s-30.22-62.66,5.36-75l32.56-1.89L402.73,369s13.35-4.21,13.55-3.58S420.28,370.49,420.58,370.15Z"/><path class="cls-7" d="M351.39,367.79c-16.22.25-31,9.57-36.29,27.67S297.83,432.22,299,432c25.45,14.25,33.45-.06,51,4.17s23.82,2.31,23.82,2.31c-5.09-25.54-11.78-38.45-11.78-38.45,1.48.26,44.65.9,55.31-10.92,3-3.32,5.28-7.49,4.82-17.68C421.33,352.51,356.1,367.72,351.39,367.79Z"/><path class="cls-6" d="M356.23,401.4c.56-.1,1.11-.19,1.66-.32s1.09-.28,1.62-.44q.4-.12.81-.27a5.87,5.87,0,0,1-.82-.23,7.47,7.47,0,0,1-1.49-.76,8.13,8.13,0,0,1-1.24-1.1,8.52,8.52,0,0,1-1-1.32l.56.6c.19.19.38.38.58.55a7.32,7.32,0,0,0,1.28.95,7.15,7.15,0,0,0,1.43.67,5.42,5.42,0,0,0,1.51.31l.9,0-.79.37a10.65,10.65,0,0,1-1.64.57,13.81,13.81,0,0,1-1.67.36,16.44,16.44,0,0,1-1.7.21c-.56.05-1.13.07-1.69.07C355.12,401.57,355.68,401.5,356.23,401.4Z"/><path class="cls-15" d="M361.33,328.84s-1.31,32.61-5,37.72L376.52,362v-35.5Z"/><path class="cls-7" d="M369.48,333.29s3.25,8.21,3.76,12.57c1.26,10.83-.11,18.47-2.35,24.63-3.15,8.65,21.18,5.36,21.76,5.37,25.71.61,25.47-.44,25.47-.44l4.1-3.29c-.57-10.57-2-19.7-1.8-29.12l.23-9.72-1.17-9.83-36.39-2.86Z"/><path class="cls-25" d="M357,340.54c2.22-3.46,20.42-9.33,20.42-9.33v5.85l-18.52,6.48Z"/><path class="cls-25" d="M357,340.54c2.22-3.46,20.42-9.33,20.42-9.33v5.85l-18.52,6.48Z"/><path class="cls-22" d="M358.33,340.31l21.14-9.75v3.78l-20.62,7.44Z"/><path class="cls-25" d="M359.51,340.31l22.3-8.44v6.52l-22.08,3.39Z"/><path class="cls-22" d="M357,339.64s-4.3-10.06-6.06-12.15c0,6.62,2.68,14.94,2.68,14.94Z"/><path class="cls-25" d="M355.14,340.09l-5.21-13.18v6.27l3.58,8.6Z"/><path class="cls-22" d="M353.51,340.31l-5.68-12.82v4.57Z"/><path class="cls-30" d="M353.51,379.78l-5.21-12V328.3l5.21,12Z"/><path class="cls-8" d="M386.52,373.82l-25.37,6V340.31l25.37-6Z"/><path class="cls-27" d="M361.15,340.31c-2.23-1.07-6.91-.7-7.64,0C353.89,342.56,360.58,343,361.15,340.31Z"/><path class="cls-31" d="M361.15,379.78c0,1-7.67,1-7.67,0V340.31c.78,1.14,6.81,1.11,7.67,0Z"/><path class="cls-15" d="M428.27,324.9l-17.27,8S409.66,355,408.83,356c-1.51,1.77-16.83,6.84-24.89,8.32a7.52,7.52,0,0,1-3.88-.3c-4-1.41-11.08-3.95-12.2-4.34-1.75-.59-6.7-1.76-7-1.17s3.85.95,6.3,2.16c.34.17,0,.61-.07.59a36.13,36.13,0,0,0-6.21-1c-1.55.1,3.58,1,6.17,2.27.18.08.19.66,0,.76-.41.24-1.67.21-5-.32-5.57-.88-.44,1.2-.44,1.2s.52,0,5.34.58c.18,0,.25.55-.07.71a8.14,8.14,0,0,1-3.31.82c-1.88.06-.73.85-.73.85a34.28,34.28,0,0,1,5.45.23c1.41.26,7.81,2.52,10.45,3.38l.32-.41c3.66.85,37.4,3.32,41.49-6.69C428.08,345.19,428.27,324.9,428.27,324.9Z"/><path class="cls-7" d="M377.67,300.81s9.78,11.42,21-2.42c0,0,12.25-1,21.29,5.42s14.44,20.83,14.44,20.83-13,8.65-23.42,8.65l-24.52-8.78-17,8.78a42.77,42.77,0,0,1-14.57-3.93S356.06,306.45,377.67,300.81Z"/><path class="cls-17" d="M408,320.29c.42,1.41.8,2.84,1.18,4.26.7,2.81,1.35,5.48,1.83,8.35a15.11,15.11,0,0,0,2.76-.22,53.84,53.84,0,0,0,12-3.88c6.29-2.87,5.44-2.59,8.61-4.15a82.08,82.08,0,0,1-8.35,4.72,45.68,45.68,0,0,1-12.15,4.16,11.93,11.93,0,0,1-3.61.14c-.32-2.11-.69-4.26-1.69-9l-.94-4.32-1-4.32C407.17,317.45,407.58,318.87,408,320.29Z"/><path class="cls-17" d="M369.14,322.94a24.45,24.45,0,0,0-.41,5.23,35.47,35.47,0,0,0,1.38,5.62l-.41.16a39.34,39.34,0,0,1-1.64-5.72,18.7,18.7,0,0,1,.24-5.44,28.6,28.6,0,0,1,1.47-5.22,28.22,28.22,0,0,1,2.38-4.84q-1,2.52-1.74,5.06A42.06,42.06,0,0,0,369.14,322.94Z"/><path class="cls-16" d="M396.19,274.93s-16.79-4.05-24.81-15.47c0,0-.14-10.39,15.27-8C401.63,253.72,405.13,268.3,396.19,274.93Z"/><path class="cls-8" d="M827.06,18.43s-.57,6.4-5.06,6.84c4.49.44,5.06,6.84,5.06,6.84s.58-6.4,5.07-6.84C827.64,24.83,827.06,18.43,827.06,18.43Z"/><path class="cls-7" d="M1308,2.25s-1.37,15-12,16c10.63,1,12,16,12,16s1.37-14.95,12-16C1309.37,17.2,1308,2.25,1308,2.25Z"/><path class="cls-8" d="M1357,265.38s-.91,10-8,10.65c7.09.69,8,10.65,8,10.65s.92-10,8-10.65C1357.92,275.34,1357,265.38,1357,265.38Z"/><path class="cls-10" d="M1085,67s-.91,10-8,10.65c7.09.69,8,10.66,8,10.66s.92-10,8-10.66C1085.92,77,1085,67,1085,67Z"/><path class="cls-7" d="M794,324.45s-1.94,21.29-17,22.76c15.07,1.47,17,22.75,17,22.75s1.93-21.29,17-22.75C795.94,345.74,794,324.45,794,324.45Z"/></g></svg>