<svg width="966" height="966" viewBox="0 0 966 966" fill="none" xmlns="http://www.w3.org/2000/svg">
<rect x="372.05" y="484.182" width="449.361" height="161.318" fill="black" stroke="black" stroke-width="5"/>
<rect x="351.562" y="458.873" width="448.156" height="163.728" fill="white" stroke="black" stroke-width="5"/>
<path d="M445.044 504.732V551.339C445.013 557.805 442.973 563.093 438.924 567.205C434.907 571.316 429.446 573.623 422.541 574.125L420.14 574.219C412.639 574.219 406.66 572.195 402.203 568.146C397.746 564.098 395.487 558.527 395.424 551.433V504.732H404.369V551.151C404.369 556.11 405.734 559.97 408.464 562.732C411.195 565.463 415.087 566.828 420.14 566.828C425.256 566.828 429.163 565.463 431.862 562.732C434.593 560.002 435.958 556.157 435.958 551.198V504.732H445.044Z" fill="black"/>
<path d="M516.81 573.278H507.724L473.216 520.456V573.278H464.13V504.732H473.216L507.818 557.789V504.732H516.81V573.278Z" fill="black"/>
<path d="M547.383 573.278H538.344V504.732H547.383V573.278Z" fill="black"/>
<path d="M621.456 573.278H612.369V541.594H577.814V573.278H568.775V504.732H577.814V534.203H612.369V504.732H621.456V573.278Z" fill="black"/>
<path d="M690.585 504.732V551.339C690.554 557.805 688.514 563.093 684.465 567.205C680.448 571.316 674.987 573.623 668.082 574.125L665.681 574.219C658.18 574.219 652.201 572.195 647.744 568.146C643.287 564.098 641.028 558.527 640.965 551.433V504.732H649.91V551.151C649.91 556.11 651.275 559.97 654.005 562.732C656.736 565.463 660.628 566.828 665.681 566.828C670.797 566.828 674.704 565.463 677.403 562.732C680.134 560.002 681.499 556.157 681.499 551.198V504.732H690.585Z" fill="black"/>
<path d="M709.671 573.278V504.732H732.08C739.518 504.732 745.105 506.27 748.84 509.346C752.606 512.421 754.489 516.972 754.489 522.998C754.489 526.2 753.579 529.04 751.759 531.519C749.938 533.967 747.459 535.866 744.32 537.216C748.024 538.252 750.943 540.229 753.077 543.148C755.242 546.035 756.325 549.488 756.325 553.505C756.325 559.656 754.332 564.49 750.346 568.005C746.36 571.52 740.727 573.278 733.445 573.278H709.671ZM718.71 541.218V565.887H733.633C737.839 565.887 741.15 564.804 743.567 562.638C746.015 560.441 747.239 557.428 747.239 553.599C747.239 545.345 742.751 541.218 733.775 541.218H718.71ZM718.71 533.967H732.362C736.317 533.967 739.471 532.979 741.825 531.002C744.21 529.024 745.403 526.341 745.403 522.951C745.403 519.185 744.305 516.454 742.108 514.76C739.911 513.033 736.568 512.17 732.08 512.17H718.71V533.967Z" fill="black"/>
<path d="M284.377 363.88C303.469 339.291 323.778 349.374 329 366C345.646 419.004 293.5 521 259 541.5C252 584 219.891 608.683 203.378 608.683C203.378 593 210.37 575.5 207 566.5C203.629 557.5 203.378 556.5 203.378 552.5M284.377 363.88C280.64 372.558 276.132 389.843 287.993 389.553C293.658 388.227 300.866 381.237 284.377 363.88ZM284.377 363.88C274.372 355.563 242 351 238.092 374.005C234.184 397.009 254.5 406.5 263.5 423C272.5 439.5 273 480.5 247.855 512.859C244.493 518.042 230.008 536.3 203.378 552.5M203.378 552.5C197 484 210.5 409.5 224 375.5C220.528 370.293 220.373 341.461 221.82 325.55C226.159 328.563 236.067 335.82 240.985 340.737C256.172 334.711 290.162 325.116 304.626 334.952C319.09 344.787 311.135 339.291 305.35 335.313C307.64 330.251 309.999 322.5 310.999 317C317.499 322.421 327.5 334 327.5 338M203.378 552.5C183.966 565.276 148.5 577 142.268 559.144C136.036 541.289 167.941 500.565 403.343 505.989" stroke="black" stroke-width="4"/>
<path d="M270.805 374.366C270.805 376.434 269.78 378.242 268.062 379.591C266.325 380.955 263.962 381.768 261.596 381.768C256.908 381.768 253.471 378.663 253.471 374.366C253.471 372.182 254.322 370.701 255.64 369.708C257.027 368.663 259.092 368.049 261.596 368.049C264.104 368.049 266.499 368.667 268.2 369.783C269.838 370.858 270.805 372.354 270.805 374.366Z" stroke="black" stroke-width="4"/>
<path d="M301.923 369.993C302.173 372.046 303.409 373.717 305.277 374.848C307.167 375.992 309.611 376.514 311.96 376.228C316.613 375.662 319.65 372.164 319.131 367.899C318.867 365.73 317.843 364.363 316.415 363.537C314.912 362.667 312.787 362.308 310.302 362.61C307.812 362.913 305.509 363.815 303.956 365.129C302.459 366.394 301.68 367.996 301.923 369.993Z" stroke="black" stroke-width="4"/>
</svg>
