<svg width="200" height="200" viewBox="0 0 966 966" fill="none" xmlns="http://www.w3.org/2000/svg">
<rect width="966" height="966" fill="none"/>
<rect x="372.05" y="484.182" width="449.361" height="161.318" fill="black" stroke="black" stroke-width="5"/>
<rect x="351.562" y="458.873" width="448.156" height="163.728" fill="white" stroke="black" stroke-width="5"/>
<path d="M445.045 504.732V551.339C445.014 557.805 442.974 563.093 438.925 567.205C434.908 571.316 429.447 573.623 422.542 574.125L420.141 574.219C412.64 574.219 406.661 572.195 402.204 568.146C397.747 564.098 395.488 558.527 395.425 551.433V504.732H404.37V551.151C404.37 556.11 405.735 559.97 408.465 562.732C411.196 565.463 415.088 566.828 420.141 566.828C425.257 566.828 429.164 565.463 431.863 562.732C434.594 560.002 435.959 556.157 435.959 551.198V504.732H445.045Z" fill="black"/>
<path d="M516.811 573.278H507.725L473.217 520.456V573.278H464.131V504.732H473.217L507.819 557.789V504.732H516.811V573.278Z" fill="black"/>
<path d="M547.384 573.278H538.345V504.732H547.384V573.278Z" fill="black"/>
<path d="M621.457 573.278H612.37V541.594H577.815V573.278H568.776V504.732H577.815V534.203H612.37V504.732H621.457V573.278Z" fill="black"/>
<path d="M690.586 504.732V551.339C690.555 557.805 688.515 563.093 684.466 567.205C680.449 571.316 674.988 573.623 668.083 574.125L665.682 574.219C658.181 574.219 652.202 572.195 647.745 568.146C643.288 564.098 641.029 558.527 640.966 551.433V504.732H649.911V551.151C649.911 556.11 651.276 559.97 654.006 562.732C656.737 565.463 660.629 566.828 665.682 566.828C670.798 566.828 674.705 565.463 677.404 562.732C680.135 560.002 681.5 556.157 681.5 551.198V504.732H690.586Z" fill="black"/>
<path d="M709.672 573.278V504.732H732.081C739.519 504.732 745.106 506.27 748.841 509.346C752.607 512.421 754.49 516.972 754.49 522.998C754.49 526.2 753.58 529.04 751.76 531.519C749.939 533.967 747.46 535.866 744.321 537.216C748.025 538.252 750.944 540.229 753.078 543.148C755.243 546.035 756.326 549.488 756.326 553.505C756.326 559.656 754.333 564.49 750.347 568.005C746.361 571.52 740.728 573.278 733.446 573.278H709.672ZM718.711 541.218V565.887H733.634C737.84 565.887 741.151 564.804 743.568 562.638C746.016 560.441 747.24 557.428 747.24 553.599C747.24 545.345 742.752 541.218 733.776 541.218H718.711ZM718.711 533.967H732.363C736.318 533.967 739.472 532.979 741.826 531.002C744.211 529.024 745.404 526.341 745.404 522.951C745.404 519.185 744.306 516.454 742.109 514.76C739.912 513.033 736.569 512.17 732.081 512.17H718.711V533.967Z" fill="black"/>
<path d="M284.377 363.88C303.47 339.291 323.779 349.374 329 366C345.646 419.004 293.5 521 259 541.5C252 584 219.892 608.683 203.379 608.683C203.379 593 210.37 575.5 207 566.5C203.63 557.5 203.379 556.5 203.379 552.5M284.377 363.88C280.641 372.558 276.133 389.843 287.993 389.553C293.658 388.227 300.866 381.237 284.377 363.88ZM284.377 363.88C274.373 355.563 242 351 238.092 374.005C234.185 397.009 254.5 406.5 263.5 423C272.5 439.5 273 480.5 247.856 512.859C244.494 518.042 230.008 536.3 203.379 552.5M203.379 552.5C197 484 210.5 409.5 224 375.5C220.529 370.293 220.374 341.461 221.82 325.55C226.16 328.563 236.067 335.82 240.985 340.737C256.172 334.711 290.163 325.116 304.627 334.952C319.091 344.787 311.136 339.291 305.35 335.313C307.64 330.251 310 322.5 311 317C317.5 322.421 327.5 334 327.5 338M203.379 552.5C183.966 565.276 148.5 577 142.268 559.144C136.036 541.289 167.942 500.565 403.344 505.989" stroke="black" stroke-width="4"/>
<path d="M270.806 374.366C270.806 376.434 269.781 378.242 268.063 379.591C266.325 380.955 263.962 381.768 261.596 381.768C256.908 381.768 253.471 378.663 253.471 374.366C253.471 372.182 254.323 370.701 255.64 369.708C257.027 368.663 259.093 368.049 261.596 368.049C264.105 368.049 266.5 368.667 268.201 369.783C269.839 370.858 270.806 372.354 270.806 374.366Z" stroke="black" stroke-width="4"/>
<path d="M301.924 369.993C302.174 372.046 303.41 373.717 305.278 374.848C307.168 375.992 309.612 376.514 311.961 376.228C316.614 375.662 319.651 372.164 319.132 367.899C318.868 365.73 317.844 364.363 316.416 363.537C314.913 362.667 312.788 362.308 310.303 362.61C307.813 362.913 305.51 363.815 303.957 365.129C302.46 366.394 301.681 367.996 301.924 369.993Z" stroke="black" stroke-width="4"/>
</svg>
